#N canvas 161 248 944 362 12;
#N canvas 496 60 1220 951 randomizer 0;
#X obj 402 126 tgl 32 0 empty empty Randomizer 0 -17 0 10 #fcfcfc #000000 #000000 0 1;
#X obj 148 559 metro;
#X msg 145 354 tempo \$1 seconds;
#X obj 444 135 hsl 100 15 0.01 1 0 0 empty empty Random\ Speed -2 -8 0 10 #fcfcfc #000000 #000000 0 1;
#X obj 377 699 s rnd;
#X obj 559 607 snapshot~;
#X obj 560 640 + 1;
#X msg 636 454 \; pd dsp \$1;
#X obj 148 626 random 1024;
#X obj 556 113 vradio 16 1 0 2 empty empty empty 0 -10 0 12 #fcfcfc #000000 #000000 0;
#X text 574 129 LFO;
#X obj 560 665 * 512;
#X obj 556 171 s \$0-mode;
#X obj 418 203 r shiftState;
#X obj 418 227 == 0;
#X obj 401 282 &&;
#X obj 401 314 s \$0-offon;
#X obj 441 169 s \$0-speed;
#X obj 145 214 r \$0-speed;
#X text 194 252 da 200 a 50;
#X floatatom 145 326 5 0 0 0 - - - 0;
#X obj 145 248 * -150;
#X obj 145 273 + 200;
#X obj 145 298 * 0.01;
#X obj 180 493 &&;
#X obj 182 388 r \$0-offon;
#X obj 198 434 == 0;
#X obj 198 410 r \$0-mode;
#X obj 148 584 bng 20 250 50 0 empty empty empty 0 -10 0 12 #fcfcfc #000000 #000000;
#X obj 419 253 t b f;
#X obj 195 460 t b f;
#X obj 176 522 tgl 20 0 empty empty empty 0 -10 0 12 #fcfcfc #000000 #000000 0 1;
#X obj 558 493 &&;
#X obj 556 376 r \$0-offon;
#X obj 572 398 r \$0-mode;
#X obj 573 460 t b f;
#X obj 558 520 tgl 20 0 empty empty empty 0 -10 0 12 #fcfcfc #000000 #000000 0 1;
#X obj 572 422 == 1;
#X obj 450 543 osc~ 20;
#X obj 559 558 metro 50;
#X obj 448 433 r \$0-speed;
#X floatatom 448 503 5 0 0 0 - - - 0;
#X obj 447 465 * 2;
#X text 573 109 Rnd;
#X connect 0 0 15 0;
#X connect 1 0 28 0;
#X connect 2 0 1 0;
#X connect 3 0 17 0;
#X connect 5 0 6 0;
#X connect 6 0 11 0;
#X connect 8 0 4 0;
#X connect 9 0 12 0;
#X connect 11 0 4 0;
#X connect 13 0 14 0;
#X connect 14 0 29 0;
#X connect 15 0 16 0;
#X connect 18 0 21 0;
#X connect 20 0 2 0;
#X connect 21 0 22 0;
#X connect 22 0 23 0;
#X connect 23 0 20 0;
#X connect 24 0 31 0;
#X connect 25 0 24 0;
#X connect 26 0 30 0;
#X connect 27 0 26 0;
#X connect 28 0 8 0;
#X connect 29 0 15 0;
#X connect 29 1 15 1;
#X connect 30 0 24 0;
#X connect 30 1 24 1;
#X connect 31 0 1 0;
#X connect 32 0 36 0;
#X connect 33 0 32 0;
#X connect 34 0 37 0;
#X connect 35 0 32 0;
#X connect 35 1 32 1;
#X connect 36 0 39 0;
#X connect 37 0 35 0;
#X connect 37 0 7 0;
#X connect 38 0 5 0;
#X connect 39 0 5 0;
#X connect 40 0 42 0;
#X connect 41 0 38 0;
#X connect 42 0 41 0;
#X coords 0 -1 1 1 200 60 2 400 100;
#X restore 52 116 pd randomizer;
#N canvas 393 335 850 600 sendosc 0;
#X obj 68 14 loadbang;
#X obj 68 73 bng 15 250 50 0 empty empty empty 17 7 0 10 #fcfcfc #000000 #000000;
#X obj 117 247 r oscOut;
#X msg 97 135 disconnect;
#X obj 68 92 t b b;
#X obj 68 172 delay 20;
#X msg 369 16 tasto shift (on e off) inviato da max/msp UDP-binary: list shift 1 UDP-binary: 47 115 104 105 102 116 0 0 44 105 0 0 0 0 0 1 UDP-binary: list shift 0 UDP-binary: 47 115 104 105 102 116 0 0 44 105 0 0 0 0 0 0;
#X obj 68 380 netsend -u -b;
#X obj 117 271 list prepend send;
#X obj 117 295 list trim;
#X msg 68 196 connect eyesy 4000;
#X obj 68 404 outlet;
#X obj 177 16 inlet;
#X connect 0 0 1 0;
#X connect 1 0 4 0;
#X connect 2 0 8 0;
#X connect 3 0 7 0;
#X connect 4 0 5 0;
#X connect 4 1 3 0;
#X connect 5 0 10 0;
#X connect 7 0 11 0;
#X connect 8 0 9 0;
#X connect 9 0 7 0;
#X connect 10 0 7 0;
#X connect 12 0 1 0;
#X restore 843 239 pd sendosc;
#X obj 843 269 tgl 19 0 empty empty empty 0 -10 0 12 #fcfcfc #000000 #000000 0 1;
#X text 864 268 connected;
#X obj 843 207 bng 20 250 50 0 empty empty empty 0 -10 0 12 #fcfcfc #000000 #000000;
#N canvas 0 28 1920 984 Controller 0;
#X obj 378 56 vsl 15 100 0 1024 0 0 empty empty Knob\ 1 0 -9 0 10 #fcfcfc #000000 #000000 0 1;
#X floatatom 378 169 5 0 0 0 - - - 0;
#X obj 378 693 s oscOut;
#X obj 470 56 vsl 15 100 0 1024 0 0 empty empty Knob\ 2 0 -9 0 10 #fcfcfc #000000 #000000 0 1;
#X floatatom 470 169 5 0 0 0 - - - 0;
#X obj 470 693 s oscOut;
#X obj 567 56 vsl 15 100 0 1024 0 0 empty empty Knob\ 3 0 -9 0 10 #fcfcfc #000000 #000000 0 1;
#X floatatom 567 169 5 0 0 0 - - - 0;
#X obj 567 693 s oscOut;
#X obj 672 56 vsl 15 100 0 1024 0 0 empty empty Knob\ 4 0 -9 0 10 #fcfcfc #000000 #000000 0 1;
#X floatatom 672 169 5 0 0 0 - - - 0;
#X obj 672 693 s oscOut;
#X obj 764 56 vsl 15 100 0 1024 0 0 empty empty Knob\ 5 0 -9 0 10 #fcfcfc #000000 #000000 0 1;
#X floatatom 764 169 5 0 0 0 - - - 0;
#X obj 766 693 s oscOut;
#X obj 20 24 tgl 32 0 empty empty Shift 0 -10 0 10 #ff8300 #000000 #000000 0 1;
#X obj 20 534 s oscOut;
#X obj 86 24 bng 32 250 50 0 empty empty OSD 0 -10 0 10 #ff0400 #000000 #000000;
#N canvas 693 321 450 512 Tastone 0;
#X obj 37 37 inlet;
#X obj 49 192 outlet;
#X obj 37 61 t b b;
#X msg 145 113 1, f 2;
#X msg 10 122 0;
#X obj 11 98 delay 100;
#X connect 0 0 2 0;
#X connect 2 0 5 0;
#X connect 2 1 3 0;
#X connect 3 0 1 0;
#X connect 4 0 1 0;
#X connect 5 0 4 0;
#X restore 85 612 pd Tastone;
#X obj 85 692 s oscOut;
#X obj 44 242 bng 32 250 50 0 empty empty <<\ Mode 0 -10 0 10 #551312 #000000 #000000;
#N canvas 693 321 450 512 Tastone 0;
#X obj 37 37 inlet;
#X obj 49 192 outlet;
#X obj 37 61 t b b;
#X msg 145 113 1, f 2;
#X msg 10 122 0;
#X obj 11 98 delay 100;
#X connect 0 0 2 0;
#X connect 2 0 5 0;
#X connect 2 1 3 0;
#X connect 3 0 1 0;
#X connect 4 0 1 0;
#X connect 5 0 4 0;
#X restore 16 281 pd Tastone;
#X obj 11 405 s oscOut;
#X obj 105 242 bng 32 250 50 0 empty empty Mode\ >> 0 -10 0 10 #551312 #000000 #000000;
#N canvas 693 321 450 512 Tastone 0;
#X obj 37 37 inlet;
#X obj 49 192 outlet;
#X obj 37 61 t b b;
#X msg 145 113 1, f 2;
#X msg 10 122 0;
#X obj 11 98 delay 100;
#X connect 0 0 2 0;
#X connect 2 0 5 0;
#X connect 2 1 3 0;
#X connect 3 0 1 0;
#X connect 4 0 1 0;
#X connect 5 0 4 0;
#X restore 47 328 pd Tastone;
#X obj 209 241 bng 32 250 50 0 empty empty <<\ Scene 0 -10 0 10 #0e4345 #000000 #000000;
#N canvas 693 321 450 512 Tastone 0;
#X obj 37 37 inlet;
#X obj 49 192 outlet;
#X obj 37 61 t b b;
#X msg 145 113 1, f 2;
#X msg 10 122 0;
#X obj 11 98 delay 100;
#X connect 0 0 2 0;
#X connect 2 0 5 0;
#X connect 2 1 3 0;
#X connect 3 0 1 0;
#X connect 4 0 1 0;
#X connect 5 0 4 0;
#X restore 182 283 pd Tastone;
#X obj 182 405 s oscOut;
#X obj 271 241 bng 32 250 50 0 empty empty Scene\ >> 0 -10 0 10 #0f4710 #000000 #000000;
#N canvas 693 321 450 512 Tastone 0;
#X obj 37 37 inlet;
#X obj 49 192 outlet;
#X obj 37 61 t b b;
#X msg 145 113 1, f 2;
#X msg 10 122 0;
#X obj 11 98 delay 100;
#X connect 0 0 2 0;
#X connect 2 0 5 0;
#X connect 2 1 3 0;
#X connect 3 0 1 0;
#X connect 4 0 1 0;
#X connect 5 0 4 0;
#X restore 208 340 pd Tastone;
#X obj 391 242 bng 32 250 50 0 empty empty Persist 0 -10 0 10 #9c00ff #000000 #000000;
#X obj 391 406 s oscOut;
#X obj 534 242 bng 32 250 50 0 empty empty Save 0 -10 0 10 #00ff04 #000000 #000000;
#N canvas 693 321 450 512 Tastone 0;
#X obj 37 37 inlet;
#X obj 49 192 outlet;
#X obj 37 61 t b b;
#X msg 145 113 1, f 2;
#X msg 10 122 0;
#X obj 11 98 delay 100;
#X connect 0 0 2 0;
#X connect 2 0 5 0;
#X connect 2 1 3 0;
#X connect 3 0 1 0;
#X connect 4 0 1 0;
#X connect 5 0 4 0;
#X restore 534 294 pd Tastone;
#X obj 533 403 s oscOut;
#X obj 681 242 bng 32 250 50 0 empty empty Screenshot 0 -10 0 10 #bbbbbb #000000 #000000;
#N canvas 693 321 450 512 Tastone 0;
#X obj 37 37 inlet;
#X obj 49 192 outlet;
#X obj 37 61 t b b;
#X msg 145 113 1, f 2;
#X msg 10 122 0;
#X obj 11 98 delay 100;
#X connect 0 0 2 0;
#X connect 2 0 5 0;
#X connect 2 1 3 0;
#X connect 3 0 1 0;
#X connect 4 0 1 0;
#X connect 5 0 4 0;
#X restore 681 295 pd Tastone;
#X obj 681 386 s oscOut;
#N canvas 693 321 450 512 Tastone 0;
#X obj 37 37 inlet;
#X obj 49 192 outlet;
#X obj 37 61 t b b;
#X msg 145 113 1, f 2;
#X msg 10 122 0;
#X obj 11 98 delay 100;
#X connect 0 0 2 0;
#X connect 2 0 5 0;
#X connect 2 1 3 0;
#X connect 3 0 1 0;
#X connect 4 0 1 0;
#X connect 5 0 4 0;
#X restore 391 294 pd Tastone;
#X obj 20 571 s shiftState;
#N canvas 0 36 1920 966 rndmzr 0;
#X obj 241 73 r rnd;
#X obj 283 135 tgl 14 0 empty empty rnd 0 -4 0 8 #fcfcfc #000000 #000000 0 1;
#X obj 240 200 outlet;
#X obj 240 159 spigot 0;
#X connect 0 0 3 0;
#X connect 1 0 3 1;
#X connect 3 0 2 0;
#X coords 0 -1 1 1 20 26 2 280 125;
#X restore 378 10 pd rndmzr;
#N canvas 0 36 1920 966 rndmzr 0;
#X obj 241 73 r rnd;
#X obj 283 135 tgl 14 0 empty empty rnd 0 -4 0 8 #fcfcfc #000000 #000000 0 1;
#X obj 240 200 outlet;
#X obj 240 159 spigot 0;
#X connect 0 0 3 0;
#X connect 1 0 3 1;
#X connect 3 0 2 0;
#X coords 0 -1 1 1 20 26 2 280 125;
#X restore 470 10 pd rndmzr;
#N canvas 0 36 1920 966 rndmzr 0;
#X obj 241 73 r rnd;
#X obj 283 135 tgl 14 0 empty empty rnd 0 -4 0 8 #fcfcfc #000000 #000000 0 1;
#X obj 240 200 outlet;
#X obj 240 159 spigot 0;
#X connect 0 0 3 0;
#X connect 1 0 3 1;
#X connect 3 0 2 0;
#X coords 0 -1 1 1 20 26 2 280 125;
#X restore 567 10 pd rndmzr;
#N canvas 0 36 1920 966 rndmzr 0;
#X obj 241 73 r rnd;
#X obj 283 135 tgl 14 0 empty empty rnd 0 -4 0 8 #fcfcfc #000000 #000000 0 1;
#X obj 240 200 outlet;
#X obj 240 159 spigot 0;
#X connect 0 0 3 0;
#X connect 1 0 3 1;
#X connect 3 0 2 0;
#X coords 0 -1 1 1 20 26 2 280 125;
#X restore 672 10 pd rndmzr;
#N canvas 0 36 1920 966 rndmzr 0;
#X obj 241 73 r rnd;
#X obj 283 135 tgl 14 0 empty empty rnd 0 -4 0 8 #fcfcfc #000000 #000000 0 1;
#X obj 240 200 outlet;
#X obj 240 159 spigot 0;
#X connect 0 0 3 0;
#X connect 1 0 3 1;
#X connect 3 0 2 0;
#X coords 0 -1 1 1 20 26 2 280 125;
#X restore 764 10 pd rndmzr;
#X obj 236 24 bng 32 250 50 0 empty empty Trigger 0 -10 0 10 #faff00 #000000 #000000;
#N canvas 693 321 450 512 Tastone 0;
#X obj 37 37 inlet;
#X obj 49 192 outlet;
#X obj 37 61 t b b;
#X msg 145 113 1, f 2;
#X msg 10 122 0;
#X obj 11 98 delay 100;
#X connect 0 0 2 0;
#X connect 2 0 5 0;
#X connect 2 1 3 0;
#X connect 3 0 1 0;
#X connect 4 0 1 0;
#X connect 5 0 4 0;
#X restore 234 612 pd Tastone;
#X obj 234 692 s oscOut;
#X obj 156 24 bng 32 250 50 0 empty empty Reload 0 -10 0 10 #0400ff #000000 #000000;
#N canvas 693 321 450 512 Tastone 0;
#X obj 37 37 inlet;
#X obj 49 192 outlet;
#X obj 37 61 t b b;
#X msg 145 113 1, f 2;
#X msg 10 122 0;
#X obj 11 98 delay 100;
#X connect 0 0 2 0;
#X connect 2 0 5 0;
#X connect 2 1 3 0;
#X connect 3 0 1 0;
#X connect 4 0 1 0;
#X connect 5 0 4 0;
#X restore 156 494 pd Tastone;
#X obj 156 571 s oscOut;
#X obj 20 494 oscformat /shift;
#X obj 85 652 oscformat /key/1;
#X obj 378 653 oscformat /knob/1;
#X obj 766 653 oscformat /knob/5;
#X obj 672 619 oscformat /knob/4;
#X obj 567 653 oscformat /knob/3;
#X obj 470 619 oscformat /knob/2;
#X obj 234 652 oscformat /key/10;
#X obj 15 305 oscformat /key/4;
#X obj 391 349 oscformat /key/3;
#X obj 45 355 oscformat /key/5;
#X obj 181 307 oscformat /key/6;
#X obj 533 363 oscformat /key/8;
#X obj 681 335 oscformat /key/9;
#X obj 156 534 oscformat /relaod;
#X obj 204 365 oscformat /key/7;
#X connect 0 0 1 0;
#X connect 1 0 53 0;
#X connect 3 0 4 0;
#X connect 4 0 57 0;
#X connect 6 0 7 0;
#X connect 7 0 56 0;
#X connect 9 0 10 0;
#X connect 10 0 55 0;
#X connect 12 0 13 0;
#X connect 13 0 54 0;
#X connect 15 0 39 0;
#X connect 15 0 51 0;
#X connect 17 0 18 0;
#X connect 18 0 52 0;
#X connect 20 0 21 0;
#X connect 21 0 59 0;
#X connect 23 0 24 0;
#X connect 24 0 61 0;
#X connect 25 0 26 0;
#X connect 26 0 62 0;
#X connect 28 0 29 0;
#X connect 29 0 66 0;
#X connect 30 0 38 0;
#X connect 32 0 33 0;
#X connect 33 0 63 0;
#X connect 35 0 36 0;
#X connect 36 0 64 0;
#X connect 38 0 60 0;
#X connect 40 0 0 0;
#X connect 41 0 3 0;
#X connect 42 0 6 0;
#X connect 43 0 9 0;
#X connect 44 0 12 0;
#X connect 45 0 46 0;
#X connect 46 0 58 0;
#X connect 48 0 49 0;
#X connect 49 0 65 0;
#X connect 51 0 16 0;
#X connect 52 0 19 0;
#X connect 53 0 2 0;
#X connect 54 0 14 0;
#X connect 55 0 11 0;
#X connect 56 0 8 0;
#X connect 57 0 5 0;
#X connect 58 0 47 0;
#X connect 59 0 22 0;
#X connect 60 0 31 0;
#X connect 61 0 22 0;
#X connect 62 0 27 0;
#X connect 63 0 34 0;
#X connect 64 0 37 0;
#X connect 65 0 50 0;
#X connect 66 0 27 0;
#X coords 0 0 1 1 810 280 2 1 1;
#X restore 15 11 pd Controller;
#X text 582 297 Der tolle Controller fur die EYESY;
#X text 673 318 Mit liebe von The XOR;
#X connect 1 0 2 0;
#X connect 4 0 1 0;
#X coords 0 362 1 361 85 60 0;
