#N canvas 801 234 944 362 12;
#N canvas 149 44 1018 806 randomizer 0;
#X obj 402 126 tgl 32 0 empty empty Randomizer 0 -17 0 10 #fcfcfc #000000 #000000 0 1;
#X obj 444 135 hsl 100 15 0.01 1 0 0 empty empty Random\ Speed -2 -8 0 10 #fcfcfc #000000 #000000 0 1;
#X obj 556 113 vradio 16 1 0 2 empty empty empty 0 -10 0 12 #fcfcfc #000000 #000000 0;
#X text 574 129 LFO;
#X obj 418 203 r shiftState;
#X obj 416 254 == 0;
#X obj 399 314 &&;
#X obj 417 285 t b f;
#X text 573 109 Rnd;
#X obj 416 229 tgl 20 0 empty empty empty 0 -10 0 12 #fcfcfc #000000 #000000 0 1;
#X obj 555 199 s rnd-mode;
#X msg 639 215 \; pd dsp \$1;
#X obj 638 192 == 1;
#X obj 441 169 s rnd-speed;
#X obj 396 343 tgl 20 0 empty empty empty 0 -10 0 12 #fcfcfc #000000 #000000 0 1;
#X obj 396 374 s rnd-offon;
#X obj 405 14 loadbang;
#X msg 404 54 0;
#X connect 0 0 6 0;
#X connect 1 0 13 0;
#X connect 2 0 10 0;
#X connect 2 0 12 0;
#X connect 4 0 9 0;
#X connect 5 0 7 0;
#X connect 6 0 14 0;
#X connect 7 0 6 0;
#X connect 7 1 6 1;
#X connect 9 0 5 0;
#X connect 12 0 11 0;
#X connect 14 0 15 0;
#X connect 16 0 17 0;
#X connect 17 0 0 0;
#X connect 17 0 2 0;
#X coords 0 -1 1 1 200 60 2 400 100;
#X restore 52 116 pd randomizer;
#N canvas 396 405 850 600 sendosc 0;
#X obj 68 14 loadbang;
#X obj 68 73 bng 15 250 50 0 empty empty empty 17 7 0 10 #fcfcfc #000000 #000000;
#X obj 117 247 r oscOut;
#X msg 97 135 disconnect;
#X obj 68 92 t b b;
#X obj 68 172 delay 20;
#X obj 68 380 netsend -u -b;
#X obj 117 271 list prepend send;
#X obj 117 295 list trim;
#X obj 68 404 outlet;
#X obj 177 16 inlet;
#X msg 68 196 connect eyesy.local 4000;
#X connect 0 0 1 0;
#X connect 1 0 4 0;
#X connect 2 0 7 0;
#X connect 3 0 6 0;
#X connect 4 0 5 0;
#X connect 4 1 3 0;
#X connect 5 0 11 0;
#X connect 6 0 9 0;
#X connect 7 0 8 0;
#X connect 8 0 6 0;
#X connect 10 0 1 0;
#X connect 11 0 6 0;
#X restore 843 239 pd sendosc;
#X obj 843 269 tgl 19 0 empty empty empty 0 -10 0 12 #fcfcfc #000000 #000000 0 1;
#X text 864 268 connected;
#X obj 843 207 bng 20 250 50 0 empty empty empty 0 -10 0 12 #fcfcfc #000000 #000000;
#N canvas 422 347 1278 631 Controller 0;
#X obj 378 56 vsl 15 100 0 1024 0 0 empty empty Knob\ 1 0 -9 0 10 #fcfcfc #000000 #000000 0 1;
#X floatatom 378 169 5 0 0 0 - - - 0;
#X obj 378 693 s oscOut;
#X obj 470 56 vsl 15 100 0 1024 0 0 empty empty Knob\ 2 0 -9 0 10 #fcfcfc #000000 #000000 0 1;
#X floatatom 470 169 5 0 0 0 - - - 0;
#X obj 470 693 s oscOut;
#X obj 567 56 vsl 15 100 0 1024 0 0 empty empty Knob\ 3 0 -9 0 10 #fcfcfc #000000 #000000 0 1;
#X floatatom 567 169 5 0 0 0 - - - 0;
#X obj 567 693 s oscOut;
#X obj 672 56 vsl 15 100 0 1024 0 0 empty empty Knob\ 4 0 -9 0 10 #fcfcfc #000000 #000000 0 1;
#X floatatom 672 169 5 0 0 0 - - - 0;
#X obj 672 693 s oscOut;
#X obj 764 56 vsl 15 100 0 1024 0 0 empty empty Knob\ 5 0 -9 0 10 #fcfcfc #000000 #000000 0 1;
#X floatatom 764 169 5 0 0 0 - - - 0;
#X obj 766 693 s oscOut;
#X obj 20 24 tgl 32 0 empty empty Shift 0 -10 0 10 #ff8300 #000000 #000000 0 1;
#X obj 40 539 s oscOut;
#X obj 86 24 bng 32 250 50 0 empty empty OSD 0 -10 0 10 #ff0400 #000000 #000000;
#N canvas 693 321 450 512 Tastone 0;
#X obj 37 37 inlet;
#X obj 49 192 outlet;
#X obj 37 61 t b b;
#X msg 145 113 1, f 2;
#X msg 10 122 0;
#X obj 11 98 delay 100;
#X connect 0 0 2 0;
#X connect 2 0 5 0;
#X connect 2 1 3 0;
#X connect 3 0 1 0;
#X connect 4 0 1 0;
#X connect 5 0 4 0;
#X restore 85 612 pd Tastone;
#X obj 85 692 s oscOut;
#X obj 44 242 bng 32 250 50 0 empty empty <<\ Mode 0 -10 0 10 #551312 #000000 #000000;
#N canvas 693 321 450 512 Tastone 0;
#X obj 37 37 inlet;
#X obj 49 192 outlet;
#X obj 37 61 t b b;
#X msg 145 113 1, f 2;
#X msg 10 122 0;
#X obj 11 98 delay 100;
#X connect 0 0 2 0;
#X connect 2 0 5 0;
#X connect 2 1 3 0;
#X connect 3 0 1 0;
#X connect 4 0 1 0;
#X connect 5 0 4 0;
#X restore 16 281 pd Tastone;
#X obj 11 405 s oscOut;
#X obj 105 242 bng 32 250 50 0 empty empty Mode\ >> 0 -10 0 10 #551312 #000000 #000000;
#N canvas 693 321 450 512 Tastone 0;
#X obj 37 37 inlet;
#X obj 49 192 outlet;
#X obj 37 61 t b b;
#X msg 145 113 1, f 2;
#X msg 10 122 0;
#X obj 11 98 delay 100;
#X connect 0 0 2 0;
#X connect 2 0 5 0;
#X connect 2 1 3 0;
#X connect 3 0 1 0;
#X connect 4 0 1 0;
#X connect 5 0 4 0;
#X restore 47 328 pd Tastone;
#X obj 209 241 bng 32 250 50 0 empty empty <<\ Scene 0 -10 0 10 #0e4345 #000000 #000000;
#N canvas 693 321 450 512 Tastone 0;
#X obj 37 37 inlet;
#X obj 49 192 outlet;
#X obj 37 61 t b b;
#X msg 145 113 1, f 2;
#X msg 10 122 0;
#X obj 11 98 delay 100;
#X connect 0 0 2 0;
#X connect 2 0 5 0;
#X connect 2 1 3 0;
#X connect 3 0 1 0;
#X connect 4 0 1 0;
#X connect 5 0 4 0;
#X restore 182 283 pd Tastone;
#X obj 182 405 s oscOut;
#X obj 271 241 bng 32 250 50 0 empty empty Scene\ >> 0 -10 0 10 #0f4710 #000000 #000000;
#N canvas 693 321 450 512 Tastone 0;
#X obj 37 37 inlet;
#X obj 49 192 outlet;
#X obj 37 61 t b b;
#X msg 145 113 1, f 2;
#X msg 10 122 0;
#X obj 11 98 delay 100;
#X connect 0 0 2 0;
#X connect 2 0 5 0;
#X connect 2 1 3 0;
#X connect 3 0 1 0;
#X connect 4 0 1 0;
#X connect 5 0 4 0;
#X restore 208 340 pd Tastone;
#X obj 391 242 bng 32 250 50 0 empty empty Persist 0 -10 0 10 #9c00ff #000000 #000000;
#X obj 391 406 s oscOut;
#X obj 534 242 bng 32 250 50 0 empty empty Save 0 -10 0 10 #00ff04 #000000 #000000;
#N canvas 693 321 450 512 Tastone 0;
#X obj 37 37 inlet;
#X obj 49 192 outlet;
#X obj 37 61 t b b;
#X msg 145 113 1, f 2;
#X msg 10 122 0;
#X obj 11 98 delay 100;
#X connect 0 0 2 0;
#X connect 2 0 5 0;
#X connect 2 1 3 0;
#X connect 3 0 1 0;
#X connect 4 0 1 0;
#X connect 5 0 4 0;
#X restore 534 294 pd Tastone;
#X obj 533 403 s oscOut;
#X obj 681 242 bng 32 250 50 0 empty empty Screenshot 0 -10 0 10 #bbbbbb #000000 #000000;
#N canvas 693 321 450 512 Tastone 0;
#X obj 37 37 inlet;
#X obj 49 192 outlet;
#X obj 37 61 t b b;
#X msg 145 113 1, f 2;
#X msg 10 122 0;
#X obj 11 98 delay 100;
#X connect 0 0 2 0;
#X connect 2 0 5 0;
#X connect 2 1 3 0;
#X connect 3 0 1 0;
#X connect 4 0 1 0;
#X connect 5 0 4 0;
#X restore 681 295 pd Tastone;
#X obj 681 386 s oscOut;
#N canvas 693 321 450 512 Tastone 0;
#X obj 37 37 inlet;
#X obj 49 192 outlet;
#X obj 37 61 t b b;
#X msg 145 113 1, f 2;
#X msg 10 122 0;
#X obj 11 98 delay 100;
#X connect 0 0 2 0;
#X connect 2 0 5 0;
#X connect 2 1 3 0;
#X connect 3 0 1 0;
#X connect 4 0 1 0;
#X connect 5 0 4 0;
#X restore 391 294 pd Tastone;
#X obj 20 571 s shiftState;
#N canvas 0 28 1920 978 rndmzr 0;
#X obj 283 135 tgl 14 0 empty empty rnd 0 -4 0 8 #fcfcfc #000000 #000000 0 1;
#X obj 231 556 outlet;
#X obj 231 515 spigot 0;
#X obj 396 301 metro;
#X msg 399 198 tempo \$1 seconds;
#X obj 834 382 snapshot~;
#X obj 835 415 + 1;
#X obj 396 368 random 1024;
#X obj 835 440 * 512;
#X text 448 96 da 200 a 50;
#X floatatom 399 170 5 0 0 0 - - - 0;
#X obj 399 92 * -150;
#X obj 399 117 + 200;
#X obj 399 142 * 0.01;
#X obj 663 152 &&;
#X obj 399 335 bng 20 250 50 0 empty empty empty 0 -10 0 12 #fcfcfc #000000 #000000;
#X obj 677 57 t b f, f 12;
#X obj 663 180 tgl 20 0 empty empty empty 0 -10 0 12 #fcfcfc #000000 #000000 0 1;
#X obj 767 183 tgl 20 0 empty empty empty 0 -10 0 12 #fcfcfc #000000 #000000 0 1;
#X obj 768 337 osc~ 20;
#X obj 834 333 metro 50;
#X floatatom 765 302 5 0 0 0 - - - 0;
#X obj 765 270 * 2;
#X obj 677 29 r rnd-mode;
#X obj 399 58 r rnd-speed;
#X obj 765 238 r rnd-speed;
#X obj 570 116 r rnd-offon;
#X obj 683 116 == 0;
#X obj 766 144 &&;
#X obj 766 116 == 1;
#X connect 0 0 2 1;
#X connect 2 0 1 0;
#X connect 3 0 15 0;
#X connect 4 0 3 0;
#X connect 5 0 6 0;
#X connect 6 0 8 0;
#X connect 7 0 2 0;
#X connect 8 0 2 0;
#X connect 10 0 4 0;
#X connect 11 0 12 0;
#X connect 12 0 13 0;
#X connect 13 0 10 0;
#X connect 14 0 17 0;
#X connect 15 0 7 0;
#X connect 16 0 14 0;
#X connect 16 0 28 0;
#X connect 16 1 27 0;
#X connect 16 1 29 0;
#X connect 17 0 3 0;
#X connect 18 0 20 0;
#X connect 19 0 5 0;
#X connect 20 0 5 0;
#X connect 21 0 19 0;
#X connect 22 0 21 0;
#X connect 23 0 16 0;
#X connect 24 0 11 0;
#X connect 25 0 22 0;
#X connect 26 0 14 0;
#X connect 26 0 28 0;
#X connect 27 0 14 1;
#X connect 28 0 18 0;
#X connect 29 0 28 1;
#X coords 0 -1 1 1 20 26 2 280 125;
#X restore 378 10 pd rndmzr;
#X obj 236 24 bng 32 250 50 0 empty empty Trigger 0 -10 0 10 #faff00 #000000 #000000;
#N canvas 693 321 450 512 Tastone 0;
#X obj 37 37 inlet;
#X obj 49 192 outlet;
#X obj 37 61 t b b;
#X msg 145 113 1, f 2;
#X msg 10 122 0;
#X obj 11 98 delay 100;
#X connect 0 0 2 0;
#X connect 2 0 5 0;
#X connect 2 1 3 0;
#X connect 3 0 1 0;
#X connect 4 0 1 0;
#X connect 5 0 4 0;
#X restore 234 612 pd Tastone;
#X obj 234 692 s oscOut;
#X obj 156 24 bng 32 250 50 0 empty empty Reload 0 -10 0 10 #0400ff #000000 #000000;
#N canvas 693 321 450 512 Tastone 0;
#X obj 37 37 inlet;
#X obj 49 192 outlet;
#X obj 37 61 t b b;
#X msg 145 113 1, f 2;
#X msg 10 122 0;
#X obj 11 98 delay 100;
#X connect 0 0 2 0;
#X connect 2 0 5 0;
#X connect 2 1 3 0;
#X connect 3 0 1 0;
#X connect 4 0 1 0;
#X connect 5 0 4 0;
#X restore 156 494 pd Tastone;
#X obj 156 571 s oscOut;
#X obj 20 494 oscformat /shift;
#X obj 85 652 oscformat /key/1;
#X obj 234 652 oscformat /key/10;
#X obj 15 305 oscformat /key/4;
#X obj 391 349 oscformat /key/3;
#X obj 45 355 oscformat /key/5;
#X obj 181 307 oscformat /key/6;
#X obj 533 363 oscformat /key/8;
#X obj 681 335 oscformat /key/9;
#X obj 156 534 oscformat /relaod;
#X obj 204 365 oscformat /key/7;
#X obj 378 653 oscformat /knobs/1;
#X obj 470 619 oscformat /knobs/2;
#X obj 567 653 oscformat /knobs/3;
#X obj 672 619 oscformat /knobs/4;
#X obj 766 653 oscformat /knobs/5;
#N canvas 0 28 1920 978 rndmzr 0;
#X obj 283 135 tgl 14 0 empty empty rnd 0 -4 0 8 #fcfcfc #000000 #000000 0 1;
#X obj 231 556 outlet;
#X obj 231 515 spigot 0;
#X obj 396 301 metro;
#X msg 399 198 tempo \$1 seconds;
#X obj 834 382 snapshot~;
#X obj 835 415 + 1;
#X obj 396 368 random 1024;
#X obj 835 440 * 512;
#X text 448 96 da 200 a 50;
#X floatatom 399 170 5 0 0 0 - - - 0;
#X obj 399 92 * -150;
#X obj 399 117 + 200;
#X obj 399 142 * 0.01;
#X obj 663 152 &&;
#X obj 399 335 bng 20 250 50 0 empty empty empty 0 -10 0 12 #fcfcfc #000000 #000000;
#X obj 677 57 t b f, f 12;
#X obj 663 180 tgl 20 0 empty empty empty 0 -10 0 12 #fcfcfc #000000 #000000 0 1;
#X obj 767 183 tgl 20 0 empty empty empty 0 -10 0 12 #fcfcfc #000000 #000000 0 1;
#X obj 768 337 osc~ 20;
#X obj 834 333 metro 50;
#X floatatom 765 302 5 0 0 0 - - - 0;
#X obj 765 270 * 2;
#X obj 677 29 r rnd-mode;
#X obj 399 58 r rnd-speed;
#X obj 765 238 r rnd-speed;
#X obj 570 116 r rnd-offon;
#X obj 683 116 == 0;
#X obj 766 144 &&;
#X obj 766 116 == 1;
#X connect 0 0 2 1;
#X connect 2 0 1 0;
#X connect 3 0 15 0;
#X connect 4 0 3 0;
#X connect 5 0 6 0;
#X connect 6 0 8 0;
#X connect 7 0 2 0;
#X connect 8 0 2 0;
#X connect 10 0 4 0;
#X connect 11 0 12 0;
#X connect 12 0 13 0;
#X connect 13 0 10 0;
#X connect 14 0 17 0;
#X connect 15 0 7 0;
#X connect 16 0 14 0;
#X connect 16 0 28 0;
#X connect 16 1 27 0;
#X connect 16 1 29 0;
#X connect 17 0 3 0;
#X connect 18 0 20 0;
#X connect 19 0 5 0;
#X connect 20 0 5 0;
#X connect 21 0 19 0;
#X connect 22 0 21 0;
#X connect 23 0 16 0;
#X connect 24 0 11 0;
#X connect 25 0 22 0;
#X connect 26 0 14 0;
#X connect 26 0 28 0;
#X connect 27 0 14 1;
#X connect 28 0 18 0;
#X connect 29 0 28 1;
#X coords 0 -1 1 1 20 26 2 280 125;
#X restore 469 10 pd rndmzr;
#N canvas 0 28 1920 978 rndmzr 0;
#X obj 283 135 tgl 14 0 empty empty rnd 0 -4 0 8 #fcfcfc #000000 #000000 0 1;
#X obj 231 556 outlet;
#X obj 231 515 spigot 0;
#X obj 396 301 metro;
#X msg 399 198 tempo \$1 seconds;
#X obj 834 382 snapshot~;
#X obj 835 415 + 1;
#X obj 396 368 random 1024;
#X obj 835 440 * 512;
#X text 448 96 da 200 a 50;
#X floatatom 399 170 5 0 0 0 - - - 0;
#X obj 399 92 * -150;
#X obj 399 117 + 200;
#X obj 399 142 * 0.01;
#X obj 663 152 &&;
#X obj 399 335 bng 20 250 50 0 empty empty empty 0 -10 0 12 #fcfcfc #000000 #000000;
#X obj 677 57 t b f, f 12;
#X obj 663 180 tgl 20 0 empty empty empty 0 -10 0 12 #fcfcfc #000000 #000000 0 1;
#X obj 767 183 tgl 20 0 empty empty empty 0 -10 0 12 #fcfcfc #000000 #000000 0 1;
#X obj 768 337 osc~ 20;
#X obj 834 333 metro 50;
#X floatatom 765 302 5 0 0 0 - - - 0;
#X obj 765 270 * 2;
#X obj 677 29 r rnd-mode;
#X obj 399 58 r rnd-speed;
#X obj 765 238 r rnd-speed;
#X obj 570 116 r rnd-offon;
#X obj 683 116 == 0;
#X obj 766 144 &&;
#X obj 766 116 == 1;
#X connect 0 0 2 1;
#X connect 2 0 1 0;
#X connect 3 0 15 0;
#X connect 4 0 3 0;
#X connect 5 0 6 0;
#X connect 6 0 8 0;
#X connect 7 0 2 0;
#X connect 8 0 2 0;
#X connect 10 0 4 0;
#X connect 11 0 12 0;
#X connect 12 0 13 0;
#X connect 13 0 10 0;
#X connect 14 0 17 0;
#X connect 15 0 7 0;
#X connect 16 0 14 0;
#X connect 16 0 28 0;
#X connect 16 1 27 0;
#X connect 16 1 29 0;
#X connect 17 0 3 0;
#X connect 18 0 20 0;
#X connect 19 0 5 0;
#X connect 20 0 5 0;
#X connect 21 0 19 0;
#X connect 22 0 21 0;
#X connect 23 0 16 0;
#X connect 24 0 11 0;
#X connect 25 0 22 0;
#X connect 26 0 14 0;
#X connect 26 0 28 0;
#X connect 27 0 14 1;
#X connect 28 0 18 0;
#X connect 29 0 28 1;
#X coords 0 -1 1 1 20 26 2 280 125;
#X restore 569 10 pd rndmzr;
#N canvas 0 28 1920 978 rndmzr 0;
#X obj 283 135 tgl 14 0 empty empty rnd 0 -4 0 8 #fcfcfc #000000 #000000 0 1;
#X obj 231 556 outlet;
#X obj 231 515 spigot 0;
#X obj 396 301 metro;
#X msg 399 198 tempo \$1 seconds;
#X obj 834 382 snapshot~;
#X obj 835 415 + 1;
#X obj 396 368 random 1024;
#X obj 835 440 * 512;
#X text 448 96 da 200 a 50;
#X floatatom 399 170 5 0 0 0 - - - 0;
#X obj 399 92 * -150;
#X obj 399 117 + 200;
#X obj 399 142 * 0.01;
#X obj 663 152 &&;
#X obj 399 335 bng 20 250 50 0 empty empty empty 0 -10 0 12 #fcfcfc #000000 #000000;
#X obj 677 57 t b f, f 12;
#X obj 663 180 tgl 20 0 empty empty empty 0 -10 0 12 #fcfcfc #000000 #000000 0 1;
#X obj 767 183 tgl 20 0 empty empty empty 0 -10 0 12 #fcfcfc #000000 #000000 0 1;
#X obj 768 337 osc~ 20;
#X obj 834 333 metro 50;
#X floatatom 765 302 5 0 0 0 - - - 0;
#X obj 765 270 * 2;
#X obj 677 29 r rnd-mode;
#X obj 399 58 r rnd-speed;
#X obj 765 238 r rnd-speed;
#X obj 570 116 r rnd-offon;
#X obj 683 116 == 0;
#X obj 766 144 &&;
#X obj 766 116 == 1;
#X connect 0 0 2 1;
#X connect 2 0 1 0;
#X connect 3 0 15 0;
#X connect 4 0 3 0;
#X connect 5 0 6 0;
#X connect 6 0 8 0;
#X connect 7 0 2 0;
#X connect 8 0 2 0;
#X connect 10 0 4 0;
#X connect 11 0 12 0;
#X connect 12 0 13 0;
#X connect 13 0 10 0;
#X connect 14 0 17 0;
#X connect 15 0 7 0;
#X connect 16 0 14 0;
#X connect 16 0 28 0;
#X connect 16 1 27 0;
#X connect 16 1 29 0;
#X connect 17 0 3 0;
#X connect 18 0 20 0;
#X connect 19 0 5 0;
#X connect 20 0 5 0;
#X connect 21 0 19 0;
#X connect 22 0 21 0;
#X connect 23 0 16 0;
#X connect 24 0 11 0;
#X connect 25 0 22 0;
#X connect 26 0 14 0;
#X connect 26 0 28 0;
#X connect 27 0 14 1;
#X connect 28 0 18 0;
#X connect 29 0 28 1;
#X coords 0 -1 1 1 20 26 2 280 125;
#X restore 670 10 pd rndmzr;
#N canvas 0 28 1920 978 rndmzr 0;
#X obj 283 135 tgl 14 0 empty empty rnd 0 -4 0 8 #fcfcfc #000000 #000000 0 1;
#X obj 231 556 outlet;
#X obj 231 515 spigot 0;
#X obj 396 301 metro;
#X msg 399 198 tempo \$1 seconds;
#X obj 834 382 snapshot~;
#X obj 835 415 + 1;
#X obj 396 368 random 1024;
#X obj 835 440 * 512;
#X text 448 96 da 200 a 50;
#X floatatom 399 170 5 0 0 0 - - - 0;
#X obj 399 92 * -150;
#X obj 399 117 + 200;
#X obj 399 142 * 0.01;
#X obj 663 152 &&;
#X obj 399 335 bng 20 250 50 0 empty empty empty 0 -10 0 12 #fcfcfc #000000 #000000;
#X obj 677 57 t b f, f 12;
#X obj 663 180 tgl 20 0 empty empty empty 0 -10 0 12 #fcfcfc #000000 #000000 0 1;
#X obj 767 183 tgl 20 0 empty empty empty 0 -10 0 12 #fcfcfc #000000 #000000 0 1;
#X obj 768 337 osc~ 20;
#X obj 834 333 metro 50;
#X floatatom 765 302 5 0 0 0 - - - 0;
#X obj 765 270 * 2;
#X obj 677 29 r rnd-mode;
#X obj 399 58 r rnd-speed;
#X obj 765 238 r rnd-speed;
#X obj 570 116 r rnd-offon;
#X obj 683 116 == 0;
#X obj 766 144 &&;
#X obj 766 116 == 1;
#X connect 0 0 2 1;
#X connect 2 0 1 0;
#X connect 3 0 15 0;
#X connect 4 0 3 0;
#X connect 5 0 6 0;
#X connect 6 0 8 0;
#X connect 7 0 2 0;
#X connect 8 0 2 0;
#X connect 10 0 4 0;
#X connect 11 0 12 0;
#X connect 12 0 13 0;
#X connect 13 0 10 0;
#X connect 14 0 17 0;
#X connect 15 0 7 0;
#X connect 16 0 14 0;
#X connect 16 0 28 0;
#X connect 16 1 27 0;
#X connect 16 1 29 0;
#X connect 17 0 3 0;
#X connect 18 0 20 0;
#X connect 19 0 5 0;
#X connect 20 0 5 0;
#X connect 21 0 19 0;
#X connect 22 0 21 0;
#X connect 23 0 16 0;
#X connect 24 0 11 0;
#X connect 25 0 22 0;
#X connect 26 0 14 0;
#X connect 26 0 28 0;
#X connect 27 0 14 1;
#X connect 28 0 18 0;
#X connect 29 0 28 1;
#X coords 0 -1 1 1 20 26 2 280 125;
#X restore 763 10 pd rndmzr;
#X text 368 187 (Gain);
#X text 438 187 (Trigger Src);
#X text 552 187 (MIDI Ch.);
#X connect 0 0 1 0;
#X connect 1 0 58 0;
#X connect 3 0 4 0;
#X connect 4 0 59 0;
#X connect 6 0 7 0;
#X connect 7 0 60 0;
#X connect 9 0 10 0;
#X connect 10 0 61 0;
#X connect 12 0 13 0;
#X connect 13 0 62 0;
#X connect 15 0 39 0;
#X connect 15 0 47 0;
#X connect 17 0 18 0;
#X connect 18 0 48 0;
#X connect 20 0 21 0;
#X connect 21 0 50 0;
#X connect 23 0 24 0;
#X connect 24 0 52 0;
#X connect 25 0 26 0;
#X connect 26 0 53 0;
#X connect 28 0 29 0;
#X connect 29 0 57 0;
#X connect 30 0 38 0;
#X connect 32 0 33 0;
#X connect 33 0 54 0;
#X connect 35 0 36 0;
#X connect 36 0 55 0;
#X connect 38 0 51 0;
#X connect 40 0 0 0;
#X connect 41 0 42 0;
#X connect 42 0 49 0;
#X connect 44 0 45 0;
#X connect 45 0 56 0;
#X connect 47 0 16 0;
#X connect 48 0 19 0;
#X connect 49 0 43 0;
#X connect 50 0 22 0;
#X connect 51 0 31 0;
#X connect 52 0 22 0;
#X connect 53 0 27 0;
#X connect 54 0 34 0;
#X connect 55 0 37 0;
#X connect 56 0 46 0;
#X connect 57 0 27 0;
#X connect 58 0 2 0;
#X connect 59 0 5 0;
#X connect 60 0 8 0;
#X connect 61 0 11 0;
#X connect 62 0 14 0;
#X connect 63 0 3 0;
#X connect 64 0 6 0;
#X connect 65 0 9 0;
#X connect 66 0 12 0;
#X coords 0 0 1 1 810 280 2 1 1;
#X restore 15 11 pd Controller;
#X text 582 297 Der tolle Controller fur die EYESY;
#X text 673 314 Mit liebe von The XOR;
#X text 882 9 V 1;
#X connect 1 0 2 0;
#X connect 4 0 1 0;
#X coords 0 362 1 361 85 60 0;
