#N canvas 472 111 1147 574 12;
#X obj 312 53 vsl 15 100 0 1024 0 0 empty empty Knob\ 1 0 -9 0 10 #fcfcfc #000000 #000000 0 1;
#X floatatom 312 166 5 0 0 0 - - - 0;
#X msg 312 194 /knob/1 \$1;
#X obj 311 232 s oscOut;
#X obj 406 54 vsl 15 100 0 1024 0 0 empty empty Knob\ 2 0 -9 0 10 #fcfcfc #000000 #000000 0 1;
#X floatatom 406 167 5 0 0 0 - - - 0;
#X obj 405 233 s oscOut;
#X obj 503 57 vsl 15 100 0 1024 0 0 empty empty Knob\ 3 0 -9 0 10 #fcfcfc #000000 #000000 0 1;
#X floatatom 503 170 5 0 0 0 - - - 0;
#X obj 502 236 s oscOut;
#X obj 611 56 vsl 15 100 0 1024 0 0 empty empty Knob\ 4 0 -9 0 10 #fcfcfc #000000 #000000 0 1;
#X floatatom 611 169 5 0 0 0 - - - 0;
#X obj 610 235 s oscOut;
#X obj 707 51 vsl 15 100 0 1024 0 0 empty empty Knob\ 5 0 -9 0 10 #fcfcfc #000000 #000000 0 1;
#X floatatom 707 164 5 0 0 0 - - - 0;
#X obj 708 234 s oscOut;
#X msg 406 195 /knob/2 \$1;
#X msg 503 198 /knob/3 \$1;
#X msg 611 197 /knob/4 \$1;
#X msg 707 192 /knob/5 \$1;
#X obj 109 54 tgl 32 0 empty empty Shift 0 -10 0 10 #ff8300 #000000 #000000 0 1;
#X msg 110 113 /shift \$1;
#X obj 110 137 s oscOut;
#X obj 213 55 bng 32 250 50 0 empty empty OSD 0 -10 0 10 #ff0400 #000000 #000000;
#N canvas 693 321 450 512 Tastone 0;
#X obj 37 37 inlet;
#X obj 49 192 outlet;
#X obj 37 61 t b b;
#X msg 145 113 1, f 2;
#X msg 10 122 0;
#X obj 11 98 delay 100;
#X connect 0 0 2 0;
#X connect 2 0 5 0;
#X connect 2 1 3 0;
#X connect 3 0 1 0;
#X connect 4 0 1 0;
#X connect 5 0 4 0;
#X restore 213 110 pd Tastone;
#X obj 211 167 s oscOut;
#X obj 213 296 bng 32 250 50 0 empty empty <<\ Mode 0 -10 0 10 #ffffff #000000 #000000;
#N canvas 693 321 450 512 Tastone 0;
#X obj 37 37 inlet;
#X obj 49 192 outlet;
#X obj 37 61 t b b;
#X msg 145 113 1, f 2;
#X msg 10 122 0;
#X obj 11 98 delay 100;
#X connect 0 0 2 0;
#X connect 2 0 5 0;
#X connect 2 1 3 0;
#X connect 3 0 1 0;
#X connect 4 0 1 0;
#X connect 5 0 4 0;
#X restore 213 333 pd Tastone;
#X obj 213 381 s oscOut;
#X obj 309 296 bng 32 250 50 0 empty empty Mode\ >> 0 -10 0 10 #ffffff #000000 #000000;
#N canvas 693 321 450 512 Tastone 0;
#X obj 37 37 inlet;
#X obj 49 192 outlet;
#X obj 37 61 t b b;
#X msg 145 113 1, f 2;
#X msg 10 122 0;
#X obj 11 98 delay 100;
#X connect 0 0 2 0;
#X connect 2 0 5 0;
#X connect 2 1 3 0;
#X connect 3 0 1 0;
#X connect 4 0 1 0;
#X connect 5 0 4 0;
#X restore 309 333 pd Tastone;
#X obj 309 381 s oscOut;
#X obj 419 296 bng 32 250 50 0 empty empty <<\ Scene 0 -10 0 10 #ffffff #000000 #000000;
#N canvas 693 321 450 512 Tastone 0;
#X obj 37 37 inlet;
#X obj 49 192 outlet;
#X obj 37 61 t b b;
#X msg 145 113 1, f 2;
#X msg 10 122 0;
#X obj 11 98 delay 100;
#X connect 0 0 2 0;
#X connect 2 0 5 0;
#X connect 2 1 3 0;
#X connect 3 0 1 0;
#X connect 4 0 1 0;
#X connect 5 0 4 0;
#X restore 419 333 pd Tastone;
#X obj 419 381 s oscOut;
#X obj 515 296 bng 32 250 50 0 empty empty Scene\ >> 0 -10 0 10 #ffffff #000000 #000000;
#N canvas 693 321 450 512 Tastone 0;
#X obj 37 37 inlet;
#X obj 49 192 outlet;
#X obj 37 61 t b b;
#X msg 145 113 1, f 2;
#X msg 10 122 0;
#X obj 11 98 delay 100;
#X connect 0 0 2 0;
#X connect 2 0 5 0;
#X connect 2 1 3 0;
#X connect 3 0 1 0;
#X connect 4 0 1 0;
#X connect 5 0 4 0;
#X restore 515 333 pd Tastone;
#X obj 515 381 s oscOut;
#X obj 619 296 bng 32 250 50 0 empty empty Persist 0 -10 0 10 #9c00ff #000000 #000000;
#X obj 619 383 s oscOut;
#X obj 715 295 bng 32 250 50 0 empty empty Save 0 -10 0 10 #00ff04 #000000 #000000;
#N canvas 693 321 450 512 Tastone 0;
#X obj 37 37 inlet;
#X obj 49 192 outlet;
#X obj 37 61 t b b;
#X msg 145 113 1, f 2;
#X msg 10 122 0;
#X obj 11 98 delay 100;
#X connect 0 0 2 0;
#X connect 2 0 5 0;
#X connect 2 1 3 0;
#X connect 3 0 1 0;
#X connect 4 0 1 0;
#X connect 5 0 4 0;
#X restore 715 335 pd Tastone;
#X obj 715 383 s oscOut;
#X obj 818 295 bng 32 250 50 0 empty empty Screenshot 0 -10 0 10 #bbbbbb #000000 #000000;
#N canvas 693 321 450 512 Tastone 0;
#X obj 37 37 inlet;
#X obj 49 192 outlet;
#X obj 37 61 t b b;
#X msg 145 113 1, f 2;
#X msg 10 122 0;
#X obj 11 98 delay 100;
#X connect 0 0 2 0;
#X connect 2 0 5 0;
#X connect 2 1 3 0;
#X connect 3 0 1 0;
#X connect 4 0 1 0;
#X connect 5 0 4 0;
#X restore 818 333 pd Tastone;
#X obj 818 381 s oscOut;
#N canvas 693 321 450 512 Tastone 0;
#X obj 37 37 inlet;
#X obj 49 192 outlet;
#X obj 37 61 t b b;
#X msg 145 113 1, f 2;
#X msg 10 122 0;
#X obj 11 98 delay 100;
#X connect 0 0 2 0;
#X connect 2 0 5 0;
#X connect 2 1 3 0;
#X connect 3 0 1 0;
#X connect 4 0 1 0;
#X connect 5 0 4 0;
#X restore 619 336 pd Tastone;
#X obj 76 167 s shiftState;
#N canvas 0 36 1920 966 randomizer 0;
#X obj 402 126 tgl 32 0 empty empty Randomizer 0 -17 0 10 #fcfcfc #000000 #000000 0 1;
#X obj 148 559 metro;
#X msg 145 354 tempo \$1 seconds;
#X obj 444 135 hsl 100 15 0.01 1 0 0 empty empty Random\ Speed -2 -8 0 10 #fcfcfc #000000 #000000 0 1;
#X obj 377 699 s rnd;
#X obj 559 607 snapshot~;
#X obj 560 640 + 1;
#X msg 636 454 \; pd dsp \$1;
#X obj 148 626 random 1024;
#X obj 556 113 vradio 16 1 0 2 empty empty empty 0 -10 0 12 #fcfcfc #000000 #000000 0;
#X text 574 129 LFO;
#X text 573 109 rnd;
#X obj 560 665 * 512;
#X obj 556 171 s \$0-mode;
#X obj 418 203 r shiftState;
#X obj 418 227 == 0;
#X obj 401 282 &&;
#X obj 401 314 s \$0-offon;
#X obj 441 169 s \$0-speed;
#X obj 145 214 r \$0-speed;
#X text 194 252 da 200 a 50;
#X floatatom 145 326 5 0 0 0 - - - 0;
#X obj 145 248 * -150;
#X obj 145 273 + 200;
#X obj 145 298 * 0.01;
#X obj 180 493 &&;
#X obj 182 388 r \$0-offon;
#X obj 198 434 == 0;
#X obj 198 410 r \$0-mode;
#X obj 148 584 bng 20 250 50 0 empty empty empty 0 -10 0 12 #fcfcfc #000000 #000000;
#X obj 419 253 t b f;
#X obj 195 460 t b f;
#X obj 176 522 tgl 20 0 empty empty empty 0 -10 0 12 #fcfcfc #000000 #000000 0 1;
#X obj 558 493 &&;
#X obj 556 376 r \$0-offon;
#X obj 572 398 r \$0-mode;
#X obj 573 460 t b f;
#X obj 558 520 tgl 20 0 empty empty empty 0 -10 0 12 #fcfcfc #000000 #000000 0 1;
#X obj 572 422 == 1;
#X obj 450 543 osc~ 20;
#X obj 559 558 metro 50;
#X obj 448 433 r \$0-speed;
#X floatatom 448 503 5 0 0 0 - - - 0;
#X obj 447 465 * 2;
#X connect 0 0 16 0;
#X connect 1 0 29 0;
#X connect 2 0 1 0;
#X connect 3 0 18 0;
#X connect 5 0 6 0;
#X connect 6 0 12 0;
#X connect 8 0 4 0;
#X connect 9 0 13 0;
#X connect 12 0 4 0;
#X connect 14 0 15 0;
#X connect 15 0 30 0;
#X connect 16 0 17 0;
#X connect 19 0 22 0;
#X connect 21 0 2 0;
#X connect 22 0 23 0;
#X connect 23 0 24 0;
#X connect 24 0 21 0;
#X connect 25 0 32 0;
#X connect 26 0 25 0;
#X connect 27 0 31 0;
#X connect 28 0 27 0;
#X connect 29 0 8 0;
#X connect 30 0 16 0;
#X connect 30 1 16 1;
#X connect 31 0 25 0;
#X connect 31 1 25 1;
#X connect 32 0 1 0;
#X connect 33 0 37 0;
#X connect 34 0 33 0;
#X connect 35 0 38 0;
#X connect 36 0 33 0;
#X connect 36 1 33 1;
#X connect 37 0 40 0;
#X connect 38 0 36 0;
#X connect 38 0 7 0;
#X connect 39 0 5 0;
#X connect 40 0 5 0;
#X connect 41 0 43 0;
#X connect 42 0 39 0;
#X connect 43 0 42 0;
#X coords 0 -1 1 1 200 60 2 400 100;
#X restore 313 423 pd randomizer;
#N canvas 0 36 1920 966 rndmzr 0;
#X obj 241 73 r rnd;
#X obj 283 135 tgl 14 0 empty empty rnd 0 -4 0 8 #fcfcfc #000000 #000000 0 1;
#X obj 240 200 outlet;
#X obj 240 159 spigot 0;
#X connect 0 0 3 0;
#X connect 1 0 3 1;
#X connect 3 0 2 0;
#X coords 0 -1 1 1 20 26 2 280 125;
#X restore 305 8 pd rndmzr;
#N canvas 0 36 1920 966 rndmzr 0;
#X obj 241 73 r rnd;
#X obj 283 135 tgl 14 0 empty empty rnd 0 -4 0 8 #fcfcfc #000000 #000000 0 1;
#X obj 240 200 outlet;
#X obj 240 159 spigot 0;
#X connect 0 0 3 0;
#X connect 1 0 3 1;
#X connect 3 0 2 0;
#X coords 0 -1 1 1 20 26 2 280 125;
#X restore 397 9 pd rndmzr;
#N canvas 0 36 1920 966 rndmzr 0;
#X obj 241 73 r rnd;
#X obj 283 135 tgl 14 0 empty empty rnd 0 -4 0 8 #fcfcfc #000000 #000000 0 1;
#X obj 240 200 outlet;
#X obj 240 159 spigot 0;
#X connect 0 0 3 0;
#X connect 1 0 3 1;
#X connect 3 0 2 0;
#X coords 0 -1 1 1 20 26 2 280 125;
#X restore 494 14 pd rndmzr;
#N canvas 0 36 1920 966 rndmzr 0;
#X obj 241 73 r rnd;
#X obj 283 135 tgl 14 0 empty empty rnd 0 -4 0 8 #fcfcfc #000000 #000000 0 1;
#X obj 240 200 outlet;
#X obj 240 159 spigot 0;
#X connect 0 0 3 0;
#X connect 1 0 3 1;
#X connect 3 0 2 0;
#X coords 0 -1 1 1 20 26 2 280 125;
#X restore 599 11 pd rndmzr;
#N canvas 0 36 1920 966 rndmzr 0;
#X obj 241 73 r rnd;
#X obj 283 135 tgl 14 0 empty empty rnd 0 -4 0 8 #fcfcfc #000000 #000000 0 1;
#X obj 240 200 outlet;
#X obj 240 159 spigot 0;
#X connect 0 0 3 0;
#X connect 1 0 3 1;
#X connect 3 0 2 0;
#X coords 0 -1 1 1 20 26 2 280 125;
#X restore 691 10 pd rndmzr;
#N canvas 252 301 1920 966 sendosc 0;
#X obj 69 16 loadbang;
#X obj 69 40 bng 15 250 50 0 empty empty empty 17 7 0 10 #fcfcfc #000000 #000000;
#X obj 130 207 r oscOut;
#X obj 406 417 print UDP-binary;
#X msg 294 95 connect eyesy 4000;
#X msg 101 113 disconnect;
#X obj 68 73 t b b;
#X obj 67 142 delay 20;
#X obj 65 381 tgl 19 0 empty empty empty 0 -10 0 12 #fcfcfc #000000 #000000 0 1;
#X text 91 369 connected;
#X msg 67 167 connect eyesy 4000;
#X obj 402 211 netreceive -b -u 4000;
#X obj 435 263 oscparse;
#X obj 65 341 netsend -u;
#X obj 131 272 oscformat;
#X msg 680 92 tasto shift (on e off) inviato da max/msp UDP-binary: list shift 1 UDP-binary: 47 115 104 105 102 116 0 0 44 105 0 0 0 0 0 1 UDP-binary: list shift 0 UDP-binary: 47 115 104 105 102 116 0 0 44 105 0 0 0 0 0 0;
#X connect 0 0 1 0;
#X connect 1 0 6 0;
#X connect 2 0 14 0;
#X connect 5 0 13 0;
#X connect 6 0 7 0;
#X connect 6 1 5 0;
#X connect 7 0 10 0;
#X connect 10 0 13 0;
#X connect 11 0 12 0;
#X connect 11 0 3 0;
#X connect 12 0 3 0;
#X connect 13 0 8 0;
#X connect 14 0 3 0;
#X connect 14 0 13 0;
#X restore 53 437 pd sendosc;
#X msg 213 357 /key/4 \$1;
#X msg 309 357 /key/5 \$1;
#X msg 419 357 /key/6 \$1;
#X msg 515 357 /key/7 \$1;
#X msg 619 359 /key/3 \$1;
#X msg 715 359 /key/8 \$1;
#X msg 818 357 /key/9 \$1;
#X obj 779 52 bng 32 250 50 0 empty empty Trigger 0 -10 0 10 #faff00 #000000 #000000;
#N canvas 693 321 450 512 Tastone 0;
#X obj 37 37 inlet;
#X obj 49 192 outlet;
#X obj 37 61 t b b;
#X msg 145 113 1, f 2;
#X msg 10 122 0;
#X obj 11 98 delay 100;
#X connect 0 0 2 0;
#X connect 2 0 5 0;
#X connect 2 1 3 0;
#X connect 3 0 1 0;
#X connect 4 0 1 0;
#X connect 5 0 4 0;
#X restore 779 107 pd Tastone;
#X obj 779 155 s oscOut;
#X obj 80 213 bng 32 250 50 0 empty empty Reload 0 -10 0 10 #0400ff #000000 #000000;
#N canvas 693 321 450 512 Tastone 0;
#X obj 37 37 inlet;
#X obj 49 192 outlet;
#X obj 37 61 t b b;
#X msg 145 113 1, f 2;
#X msg 10 122 0;
#X obj 11 98 delay 100;
#X connect 0 0 2 0;
#X connect 2 0 5 0;
#X connect 2 1 3 0;
#X connect 3 0 1 0;
#X connect 4 0 1 0;
#X connect 5 0 4 0;
#X restore 80 268 pd Tastone;
#X obj 80 316 s oscOut;
#X msg 80 292 /reload \$1;
#X msg 213 134 /key/1 \$1;
#X msg 779 131 /key/10 \$1;
#X connect 0 0 1 0;
#X connect 1 0 2 0;
#X connect 2 0 3 0;
#X connect 4 0 5 0;
#X connect 5 0 16 0;
#X connect 7 0 8 0;
#X connect 8 0 17 0;
#X connect 10 0 11 0;
#X connect 11 0 18 0;
#X connect 13 0 14 0;
#X connect 14 0 19 0;
#X connect 16 0 6 0;
#X connect 17 0 9 0;
#X connect 18 0 12 0;
#X connect 19 0 15 0;
#X connect 20 0 21 0;
#X connect 20 0 47 0;
#X connect 21 0 22 0;
#X connect 23 0 24 0;
#X connect 24 0 69 0;
#X connect 26 0 27 0;
#X connect 27 0 55 0;
#X connect 29 0 30 0;
#X connect 30 0 56 0;
#X connect 32 0 33 0;
#X connect 33 0 57 0;
#X connect 35 0 36 0;
#X connect 36 0 58 0;
#X connect 38 0 46 0;
#X connect 40 0 41 0;
#X connect 41 0 60 0;
#X connect 43 0 44 0;
#X connect 44 0 61 0;
#X connect 46 0 59 0;
#X connect 49 0 0 0;
#X connect 50 0 4 0;
#X connect 51 0 7 0;
#X connect 52 0 10 0;
#X connect 53 0 13 0;
#X connect 55 0 28 0;
#X connect 56 0 31 0;
#X connect 57 0 34 0;
#X connect 58 0 37 0;
#X connect 59 0 39 0;
#X connect 60 0 42 0;
#X connect 61 0 45 0;
#X connect 62 0 63 0;
#X connect 63 0 70 0;
#X connect 65 0 66 0;
#X connect 66 0 68 0;
#X connect 68 0 67 0;
#X connect 69 0 25 0;
#X connect 70 0 64 0;
