#N canvas 9 260 1105 663 10;
#X obj 106 404 tgl 15 0 empty empty empty 17 7 0 10 -262144 -1 -1 0
1;
#X obj 108 278 packOSC;
#X obj 106 368 udpsend;
#X obj 41 170 r oscOut;
#X msg 177 310 connect localhost 4000;
#X obj 192 174 metro 1000;
#X obj 270 55 loadbang;
#X obj 51 50 udpreceive 4001;
#X obj 51 72 unpackOSC;
#X obj 50 98 s oscIn;
#X text 131 405 connected;
#X obj 295 206 shell;
#X msg 295 178 ./pd_loaded.sh;
#X obj 295 152 delay 100;
#N canvas 77 58 1040 523 midi 0;
#X obj 60 40 notein;
#X text 60 16 MIDI IN;
#X obj 329 38 ctlin;
#X obj 29 137 pack 0 0;
#X msg 25 274 sendtyped /midinote ii \$1 \$2;
#X obj 336 142 pack 0 0;
#X msg 336 222 sendtyped /midicc ii \$1 \$2;
#X obj 333 389 s oscOut;
#X obj 499 52 r midiCh;
#X obj 449 98 i 1;
#X obj 419 143 ==;
#X obj 399 74 t f b;
#X obj 351 180 spigot;
#X obj 42 183 spigot;
#X obj 222 57 r midiCh;
#X obj 172 103 i 1;
#X obj 142 148 ==;
#X obj 122 79 t f b;
#X obj 115 238 s midiNoteIn;
#X obj 808 56 r midiCh;
#X obj 758 102 i 1;
#X obj 728 147 ==;
#X obj 708 78 t f b;
#X obj 660 184 spigot;
#X obj 638 42 pgmin;
#X msg 630 226 sendtyped /midipgm i \$1;
#X connect 0 0 3 0;
#X connect 0 1 3 1;
#X connect 0 2 17 0;
#X connect 2 0 5 0;
#X connect 2 1 5 1;
#X connect 2 2 11 0;
#X connect 3 0 13 0;
#X connect 4 0 7 0;
#X connect 5 0 12 0;
#X connect 6 0 7 0;
#X connect 8 0 9 1;
#X connect 9 0 10 1;
#X connect 10 0 12 1;
#X connect 11 0 10 0;
#X connect 11 1 9 0;
#X connect 12 0 6 0;
#X connect 13 0 4 0;
#X connect 13 0 18 0;
#X connect 14 0 15 1;
#X connect 15 0 16 1;
#X connect 16 0 13 1;
#X connect 17 0 16 0;
#X connect 17 1 15 0;
#X connect 19 0 20 1;
#X connect 20 0 21 1;
#X connect 21 0 23 1;
#X connect 22 0 21 0;
#X connect 22 1 20 0;
#X connect 23 0 25 0;
#X connect 24 0 23 0;
#X connect 24 1 22 0;
#X connect 25 0 7 0;
#X restore 714 97 pd midi;
#N canvas 83 50 1168 585 shift-params 0;
#X obj 272 1 r shiftKey;
#X obj 375 106 == 0;
#X obj 401 141 s enableKnobs;
#X obj 205 332 spigot 0;
#X obj 198 415 i;
#X obj 566 423 i;
#X obj 566 377 * 16;
#X obj 566 399 + 1;
#X obj 566 353 / 1024;
#X obj 394 428 i;
#X obj 394 404 + 1;
#X obj 394 358 / 1024;
#X floatatom 582 457 5 0 0 0 - - -;
#X floatatom 421 459 5 0 0 0 - - -;
#X floatatom 213 446 5 0 0 0 - - -;
#X obj 882 395 textfile;
#X msg 1054 242 clear;
#X msg 833 259 add midiCh \$1;
#X msg 874 292 add trigSource \$1;
#X msg 905 321 add inputGain \$1;
#X obj 197 508 s inputGain;
#X obj 385 501 s trigSource;
#X obj 570 504 s midiCh;
#X obj 860 166 r midiCh;
#X obj 908 188 r trigSource;
#X obj 972 207 r inputGain;
#X obj 941 236 i 100;
#X obj 889 226 i 0;
#X obj 846 214 i 1;
#X obj 893 130 t b b b b;
#X obj 828 54 bng 15 250 50 0 empty empty empty 17 7 0 10 -262144 -1
-1;
#X obj 194 282 r knob1;
#X obj 388 330 spigot 0;
#X obj 555 320 spigot 0;
#X obj 379 290 r knob2;
#X obj 557 291 r knob3;
#N canvas 11 50 1188 455 shift-display 0;
#X msg 79 153 sendtyped /shift i \$1;
#X obj 387 421 s oscOut;
#X msg 268 159 send /sline 0 Input Gain \$1 %;
#X msg 952 302 send /sline 2 MIDI Channel \$1;
#X msg 550 317 send /sline 1 Trigger Source MIDI Notes;
#X msg 481 200 send /sline 1 Trigger Source Audio;
#X obj 239 76 r inputGain;
#X obj 451 67 r trigSource;
#X obj 858 66 r midiCh;
#X obj 77 48 inlet;
#X text 108 121 enable overlay;
#X msg 502 221 send /sline 1 Trigger Source LINK Quarter Note;
#X msg 516 242 send /sline 1 Trigger Source LINK Eighth Note;
#X msg 521 267 send /sline 1 Trigger Source MIDI Clock Quarter Note
;
#X msg 537 290 send /sline 1 Trigger Source MIDI Clock Eighth Note
;
#X obj 502 168 sel 1 2 3 4 5 6;
#X connect 0 0 1 0;
#X connect 2 0 1 0;
#X connect 3 0 1 0;
#X connect 4 0 1 0;
#X connect 5 0 1 0;
#X connect 6 0 2 0;
#X connect 7 0 15 0;
#X connect 8 0 3 0;
#X connect 9 0 0 0;
#X connect 11 0 1 0;
#X connect 12 0 1 0;
#X connect 13 0 1 0;
#X connect 14 0 1 0;
#X connect 15 0 5 0;
#X connect 15 1 11 0;
#X connect 15 2 12 0;
#X connect 15 3 13 0;
#X connect 15 4 14 0;
#X connect 15 5 4 0;
#X restore 68 168 pd shift-display;
#X obj 212 166 s enableShift;
#X obj 281 93 == 1;
#X obj 273 260 r enableShift;
#X obj 458 268 r enableShift;
#X obj 637 284 r enableShift;
#X obj 271 62 t f f f;
#X obj 282 119 t f f;
#X obj 330 156 sel 1 0;
#X obj 420 209 s saveShiftParams;
#X obj 253 213 s recallShiftParams;
#X obj 739 28 r saveShiftParams;
#X obj 827 76 t b b;
#X msg 617 129 write /sdcard/System/shift-params.txt;
#X obj 1036 286 bng 15 250 50 0 empty empty empty 17 7 0 10 -262144
-1 -1;
#X obj 855 428 route inputGain trigSource midiCh;
#X floatatom 850 456 5 0 0 0 - - -;
#X floatatom 927 454 5 0 0 0 - - -;
#X floatatom 1008 453 5 0 0 0 - - -;
#X obj 1075 281 r recallShiftParams;
#X obj 811 494 s inputGain;
#X obj 902 492 s trigSource;
#X obj 1007 492 s midiCh;
#X msg 1087 361 read /sdcard/System/shift-params.txt;
#X obj 1048 322 t b b b b b;
#X msg 1027 360 rewind;
#X obj 266 30 change 0;
#X text 338 34 ignore first 0;
#X obj 198 369 / 1023;
#X obj 198 393 * 301;
#X obj 394 382 * 6;
#X connect 0 0 62 0;
#X connect 1 0 2 0;
#X connect 3 0 64 0;
#X connect 4 0 14 0;
#X connect 4 0 20 0;
#X connect 5 0 12 0;
#X connect 5 0 22 0;
#X connect 6 0 7 0;
#X connect 7 0 5 0;
#X connect 8 0 6 0;
#X connect 9 0 13 0;
#X connect 9 0 21 0;
#X connect 10 0 9 0;
#X connect 11 0 66 0;
#X connect 15 0 51 0;
#X connect 16 0 15 0;
#X connect 17 0 15 0;
#X connect 18 0 15 0;
#X connect 19 0 15 0;
#X connect 23 0 28 1;
#X connect 24 0 27 1;
#X connect 25 0 26 1;
#X connect 26 0 19 0;
#X connect 27 0 18 0;
#X connect 28 0 17 0;
#X connect 29 0 28 0;
#X connect 29 1 27 0;
#X connect 29 2 26 0;
#X connect 29 3 16 0;
#X connect 30 0 48 0;
#X connect 31 0 3 0;
#X connect 32 0 11 0;
#X connect 33 0 8 0;
#X connect 34 0 32 0;
#X connect 35 0 33 0;
#X connect 38 0 43 0;
#X connect 39 0 3 1;
#X connect 40 0 32 1;
#X connect 41 0 33 1;
#X connect 42 0 36 0;
#X connect 42 1 38 0;
#X connect 42 2 1 0;
#X connect 43 0 37 0;
#X connect 43 1 44 0;
#X connect 44 0 46 0;
#X connect 44 1 45 0;
#X connect 47 0 48 0;
#X connect 48 0 49 0;
#X connect 48 1 29 0;
#X connect 49 0 15 0;
#X connect 50 0 60 0;
#X connect 51 0 52 0;
#X connect 51 1 53 0;
#X connect 51 2 54 0;
#X connect 52 0 56 0;
#X connect 53 0 57 0;
#X connect 54 0 58 0;
#X connect 55 0 60 0;
#X connect 59 0 15 0;
#X connect 60 0 15 0;
#X connect 60 1 15 0;
#X connect 60 2 15 0;
#X connect 60 3 61 0;
#X connect 60 4 59 0;
#X connect 61 0 15 0;
#X connect 62 0 42 0;
#X connect 64 0 65 0;
#X connect 65 0 4 0;
#X connect 66 0 10 0;
#X restore 715 123 pd shift-params;
#N canvas 0 94 1366 674 knobs-and-keys 0;
#X floatatom 707 313 5 0 0 0 - - -;
#X floatatom 631 312 5 0 0 0 - - -;
#X floatatom 562 311 5 0 0 0 - - -;
#X floatatom 480 308 5 0 0 0 - - -;
#X obj 484 449 pack 0 0 0 0 0;
#X obj 418 648 s oscOut;
#X obj 1103 518 s oscOut;
#X obj 2535 382 change -1;
#X obj 2535 431 tgl 15 0 empty empty empty 17 7 0 10 -262144 -1 -1
0 1;
#X obj 2702 391 change -1;
#X obj 2702 440 tgl 15 0 empty empty empty 17 7 0 10 -262144 -1 -1
0 1;
#X obj 2368 374 change -1;
#X obj 2368 423 tgl 15 0 empty empty empty 17 7 0 10 -262144 -1 -1
0 1;
#X obj 1687 403 change -1;
#X obj 1687 452 tgl 15 0 empty empty empty 17 7 0 10 -262144 -1 -1
0 1;
#X obj 2007 388 change -1;
#X obj 2007 437 tgl 15 0 empty empty empty 17 7 0 10 -262144 -1 -1
0 1;
#X obj 1485 395 change -1;
#X obj 1485 444 tgl 15 0 empty empty empty 17 7 0 10 -262144 -1 -1
0 1;
#X obj 2368 398 == 0;
#X obj 2702 415 == 0;
#X obj 2535 406 == 0;
#X obj 1687 427 == 0;
#X obj 2007 412 == 0;
#X obj 1485 419 == 0;
#X obj 2183 384 change -1;
#X obj 2182 446 tgl 15 0 empty empty empty 17 7 0 10 -262144 -1 -1
0 1;
#X obj 2183 416 == 0;
#X obj 1286 387 change -1;
#X obj 1286 436 tgl 15 0 empty empty empty 17 7 0 10 -262144 -1 -1
0 1;
#X obj 1286 411 == 0;
#X obj 1858 417 change -1;
#X obj 1858 466 tgl 15 0 empty empty empty 17 7 0 10 -262144 -1 -1
0 1;
#X obj 1858 441 == 0;
#X obj 1103 408 change -1;
#X obj 1103 457 tgl 15 0 empty empty empty 17 7 0 10 -262144 -1 -1
0 1;
#X obj 1103 432 == 0;
#X obj 1857 544 s oscOut;
#X obj 1288 505 s oscOut;
#X obj 2182 527 s oscOut;
#X obj 1483 504 s oscOut;
#X obj 2009 525 s oscOut;
#X obj 1687 519 s oscOut;
#X obj 2538 515 s oscOut;
#X obj 2368 516 s oscOut;
#X msg 2183 495 sendtyped /key ii 4 \$1;
#X msg 1859 509 sendtyped /key ii 6 \$1;
#X msg 2538 490 sendtyped /key ii 1 \$1;
#X msg 2368 491 sendtyped /key ii 3 \$1;
#X msg 2009 500 sendtyped /key ii 5 \$1;
#X msg 1687 494 sendtyped /key ii 7 \$1;
#X msg 1483 479 sendtyped /key ii 8 \$1;
#X msg 1288 480 sendtyped /key ii 9 \$1;
#X msg 1103 493 sendtyped /key ii 10 \$1;
#X obj 2705 490 s shiftKey;
#X obj 420 508 t a a;
#X obj 457 535 s knobs;
#X obj 838 6 loadbang;
#X obj 708 262 smooth;
#X obj 708 285 change -1;
#X obj 720 343 s knob1;
#X obj 625 262 smooth;
#X obj 629 286 change -1;
#X obj 654 362 s knob5;
#X obj 554 259 smooth;
#X obj 554 282 change -1;
#X obj 572 358 s knob2;
#X obj 400 261 smooth;
#X obj 400 284 change -1;
#X obj 399 361 s knob3;
#X obj 484 258 smooth;
#X obj 480 284 change -1;
#X obj 505 358 s knob4;
#X text 690 220 knob vals used in pd;
#X text 599 450 stream raw vals to video engine;
#X obj 838 40 delay 110;
#X obj 1586 133 delay 10;
#X msg 548 150 setup_wiringPi;
#X obj 502 185 wiringPi_mcp3008 0 5;
#X obj 502 213 unpack f f f f f;
#X obj 488 112 delay 80;
#X obj 521 77 t b b;
#X obj 838 63 t b b;
#X obj 1103 365 wiringPi_gpio 0 1 1;
#X obj 1857 353 wiringPi_gpio 1 1 1;
#X obj 1264 357 wiringPi_gpio 3 1 1;
#X obj 1677 359 wiringPi_gpio 2 1 1;
#X obj 2185 348 wiringPi_gpio 4 1 1;
#X obj 2002 347 wiringPi_gpio 5 1 1;
#X text 1111 473 Key 10: TRIGGER;
#X text 1293 463 KEY 9:screen grab;
#X text 1493 461 KEY 8: Save/delete scene;
#X obj 1473 361 wiringPi_gpio 6 1 1;
#X text 1693 479 KEY 7: next scene;
#X text 1868 495 KEY 6: prev scene;
#X text 2019 481 KEY 5: next mode;
#X text 2190 476 KEY 4: prev mode;
#X text 2378 468 KEY 3: AUTO CLEAR;
#X obj 2346 342 wiringPi_gpio 7 1 1;
#X text 2551 467 KEY 1: OSD;
#X obj 2499 340 wiringPi_gpio 27 1 1;
#X text 2785 638 Heavily XORified;
#X obj 2692 345 wiringPi_gpio 26 1 1;
#X text 2715 468 KEY 2: SHIFT;
#X obj 1587 199 t b b b b b b b b b b, f 112;
#X floatatom 399 308 5 0 0 0 - - -;
#X obj 482 151 metro 100;
#X obj 785 15 bng 15 250 50 0 empty empty empty 17 7 0 10 -262144 -1
-1;
#X obj 1587 169 metro 80;
#X msg 415 558 sendtyped /knobs iiiii \$1 \$2 \$3 \$4 \$5;
#X obj 629 337 t b f;
#X obj 398 335 t b f;
#X obj 481 334 t b f;
#X obj 562 332 t b f;
#X connect 0 0 4 0;
#X connect 0 0 60 0;
#X connect 1 0 110 0;
#X connect 2 0 113 0;
#X connect 3 0 112 0;
#X connect 4 0 55 0;
#X connect 7 0 21 0;
#X connect 8 0 47 0;
#X connect 9 0 20 0;
#X connect 10 0 54 0;
#X connect 11 0 19 0;
#X connect 12 0 48 0;
#X connect 13 0 22 0;
#X connect 14 0 50 0;
#X connect 15 0 23 0;
#X connect 16 0 49 0;
#X connect 17 0 24 0;
#X connect 18 0 51 0;
#X connect 19 0 12 0;
#X connect 20 0 10 0;
#X connect 21 0 8 0;
#X connect 22 0 14 0;
#X connect 23 0 16 0;
#X connect 24 0 18 0;
#X connect 25 0 27 0;
#X connect 26 0 45 0;
#X connect 27 0 26 0;
#X connect 28 0 30 0;
#X connect 29 0 52 0;
#X connect 30 0 29 0;
#X connect 31 0 33 0;
#X connect 32 0 46 0;
#X connect 33 0 32 0;
#X connect 34 0 36 0;
#X connect 35 0 53 0;
#X connect 36 0 35 0;
#X connect 45 0 39 0;
#X connect 46 0 37 0;
#X connect 47 0 43 0;
#X connect 48 0 44 0;
#X connect 49 0 41 0;
#X connect 50 0 42 0;
#X connect 51 0 40 0;
#X connect 52 0 38 0;
#X connect 53 0 6 0;
#X connect 55 0 109 0;
#X connect 55 1 56 0;
#X connect 57 0 75 0;
#X connect 58 0 59 0;
#X connect 59 0 0 0;
#X connect 61 0 62 0;
#X connect 62 0 1 0;
#X connect 64 0 65 0;
#X connect 65 0 2 0;
#X connect 67 0 68 0;
#X connect 68 0 105 0;
#X connect 70 0 71 0;
#X connect 71 0 3 0;
#X connect 75 0 82 0;
#X connect 76 0 108 0;
#X connect 77 0 78 0;
#X connect 78 0 79 0;
#X connect 79 0 67 0;
#X connect 79 1 70 0;
#X connect 79 2 64 0;
#X connect 79 3 61 0;
#X connect 79 4 58 0;
#X connect 80 0 106 0;
#X connect 81 0 80 0;
#X connect 81 1 77 0;
#X connect 82 0 81 0;
#X connect 82 1 76 0;
#X connect 83 0 34 0;
#X connect 84 0 31 0;
#X connect 85 0 28 0;
#X connect 86 0 13 0;
#X connect 87 0 25 0;
#X connect 88 0 15 0;
#X connect 92 0 17 0;
#X connect 98 0 11 0;
#X connect 100 0 7 0;
#X connect 102 0 9 0;
#X connect 104 0 83 0;
#X connect 104 1 85 0;
#X connect 104 2 92 0;
#X connect 104 3 86 0;
#X connect 104 4 84 0;
#X connect 104 5 88 0;
#X connect 104 6 87 0;
#X connect 104 7 98 0;
#X connect 104 8 100 0;
#X connect 104 9 102 0;
#X connect 105 0 111 0;
#X connect 106 0 78 0;
#X connect 107 0 75 0;
#X connect 108 0 104 0;
#X connect 109 0 5 0;
#X connect 110 0 4 0;
#X connect 110 1 4 4;
#X connect 110 1 63 0;
#X connect 111 0 4 0;
#X connect 111 1 4 2;
#X connect 111 1 69 0;
#X connect 112 0 4 0;
#X connect 112 1 4 3;
#X connect 112 1 72 0;
#X connect 113 0 4 0;
#X connect 113 1 66 0;
#X connect 113 1 4 1;
#X restore 713 45 pd knobs-and-keys;
#N canvas 0 94 1366 674 wifi 0;
#N canvas 4 50 450 300 once 0;
#X obj 67 30 inlet;
#X obj 67 52 spigot 1;
#X obj 67 74 t a b;
#X obj 67 96 outlet;
#X msg 149 64 0;
#X connect 0 0 1 0;
#X connect 1 0 2 0;
#X connect 2 0 3 0;
#X connect 2 1 4 0;
#X connect 4 0 1 1;
#X restore 177 103 pd once;
#X obj 177 133 sel 0 1;
#X obj 48 344 shell;
#X obj 404 270 shell;
#N canvas 4 50 450 300 once 0;
#X obj 67 30 inlet;
#X obj 67 52 spigot 1;
#X obj 67 74 t a b;
#X obj 67 96 outlet;
#X msg 149 64 0;
#X connect 0 0 1 0;
#X connect 1 0 2 0;
#X connect 2 0 3 0;
#X connect 2 1 4 0;
#X connect 4 0 1 1;
#X restore 103 341 pd once;
#X msg 59 262 sudo systemctl start wpa_supplicant;
#X msg 94 296 sudo systemctl start dhcpcd;
#X msg 407 188 sudo systemctl start createap;
#X obj 180 34 r shiftKey;
#X msg 303 222 sudo systemctl stop createap;
#X obj 26 63 bng 15 250 50 0 empty empty empty 17 7 0 10 -262144 -1
-1;
#X text 231 70 The XOR Disabilita AP;
#X obj 216 195 t b b b;
#X connect 0 0 1 0;
#X connect 1 0 12 0;
#X connect 1 1 7 0;
#X connect 2 1 4 0;
#X connect 4 0 6 0;
#X connect 5 0 2 0;
#X connect 6 0 2 0;
#X connect 7 0 3 0;
#X connect 9 0 3 0;
#X connect 10 0 12 0;
#X connect 12 0 6 0;
#X connect 12 1 5 0;
#X connect 12 2 9 0;
#X restore 714 148 pd wifi;
#X obj 456 302 r inputGain;
#X obj 456 341 f;
#X obj 456 373 / 100;
#X msg 456 405 sendtyped /ascale f \$1;
#X obj 534 502 s oscOut;
#X obj 636 349 r link-session-present;
#X obj 993 48 r trigSource;
#X floatatom 993 70 5 0 0 0 - - -;
#X msg 410 178 \; pd dsp 1 \;;
#X msg 636 414 sendtyped /linkpresent i \$1;
#X obj 636 384 i;
#X floatatom 995 123 5 0 0 0 - - -;
#X obj 995 101 r midiCh;
#X obj 270 77 t b b b b;
#N canvas 0 94 1366 674 led 0;
#X obj 182 292 rpi_gpio 22 0 1;
#X obj 63 293 rpi_gpio 23 0 1;
#X obj 299 294 rpi_gpio 24 0 1;
#X obj 180 50 routeOSC /led;
#X obj 181 77 % 8;
#X obj 182 110 t f f f;
#X obj 182 132 int;
#X obj 202 160 int;
#X obj 227 130 int;
#X obj 235 204 & 1;
#X obj 198 207 & 1;
#X obj 156 207 & 1;
#X obj 198 185 >> 1;
#X obj 156 185 >> 0;
#X obj 235 182 >> 2;
#X obj 185 24 r oscIn;
#X obj 147 235 == 0;
#X obj 204 236 == 0;
#X obj 245 232 == 0;
#X obj 129 275 tgl 15 0 empty empty empty 17 7 0 10 -262144 -1 -1 0
1;
#X obj 232 274 tgl 15 0 empty empty empty 17 7 0 10 -262144 -1 -1 0
1;
#X obj 360 274 tgl 15 0 empty empty empty 17 7 0 10 -262144 -1 -1 0
1;
#X text 378 273 B;
#X text 248 275 G;
#X text 146 273 R;
#X connect 3 0 4 0;
#X connect 4 0 5 0;
#X connect 5 0 6 0;
#X connect 5 1 7 0;
#X connect 5 2 8 0;
#X connect 6 0 13 0;
#X connect 7 0 12 0;
#X connect 8 0 14 0;
#X connect 9 0 18 0;
#X connect 10 0 17 0;
#X connect 11 0 16 0;
#X connect 12 0 10 0;
#X connect 13 0 11 0;
#X connect 14 0 9 0;
#X connect 15 0 3 0;
#X connect 16 0 1 0;
#X connect 17 0 0 0;
#X connect 18 0 2 0;
#X connect 19 0 1 0;
#X connect 20 0 0 0;
#X connect 21 0 2 0;
#X restore 714 71 pd led;
#X obj 497 167 s recallShiftParams;
#X floatatom 995 174 5 0 0 0 - - -;
#X obj 995 152 r inputGain;
#N canvas 11 50 735 474 metro-and-trig 0;
#N canvas 8 50 1216 609 metronome 0;
#X floatatom 393 117 5 0 0 1 tempo - -;
#X obj 165 127 * 360;
#X obj 165 149 i;
#X obj 616 57 midirealtimein;
#X text 932 98 MIDI 248 = clock \; 250 = start \; 251 = continue. 252
= stop;
#X obj 616 108 sel 248 250 251 252 254, f 38;
#X obj 616 244 f;
#X obj 682 243 + 1;
#X obj 616 266 t f f;
#X obj 616 311 % 24;
#X obj 616 356 * 15;
#X obj 616 406 i;
#X obj 773 134 s midi-stop;
#X obj 668 193 s midi-start;
#X obj 721 163 s midi-cont;
#X obj 165 476 clockfix;
#N canvas 37 50 815 554 LINK 0;
#X msg 355 126 tempo \$1;
#X msg 144 127 resolution \$1;
#X msg 247 147 reset \$1 \$2;
#X obj 247 126 pack f f;
#X floatatom 266 247 5 0 0 1 beat_time - -;
#X floatatom 180 285 5 0 0 1 step - -;
#X floatatom 378 246 5 0 0 1 tempo - -;
#X obj 59 105 tgl 15 0 empty empty empty 17 7 0 10 -262144 -1 -1 1
1;
#X obj 180 199 abl_link~ 1 0 4 134;
#X floatatom 355 107 5 0 0 2 tempo - -;
#X floatatom 292 107 5 0 0 2 quantum - -;
#X floatatom 247 107 5 0 0 2 beat - -;
#X floatatom 144 107 5 0 0 2 resolution - -;
#X msg 59 125 connect \$1;
#X floatatom 510 231 5 0 0 0 - - -;
#X obj 510 209 r #abl_link_num_peers;
#X obj 32 45 loadbang;
#X obj 32 67 delay 100;
#X obj 267 326 wrap;
#X obj 285 31 inlet;
#X obj 388 273 i;
#X obj 267 388 outlet;
#X obj 388 295 outlet;
#X obj 510 261 > 0;
#X obj 510 283 s link-session-present;
#X connect 0 0 8 0;
#X connect 1 0 8 0;
#X connect 2 0 8 0;
#X connect 3 0 2 0;
#X connect 6 0 20 0;
#X connect 7 0 13 0;
#X connect 8 0 5 0;
#X connect 8 1 18 0;
#X connect 8 2 4 0;
#X connect 8 3 6 0;
#X connect 9 0 0 0;
#X connect 10 0 3 1;
#X connect 11 0 3 0;
#X connect 12 0 1 0;
#X connect 13 0 8 0;
#X connect 14 0 23 0;
#X connect 15 0 14 0;
#X connect 16 0 17 0;
#X connect 17 0 7 0;
#X connect 18 0 21 0;
#X connect 19 0 9 0;
#X connect 20 0 22 0;
#X connect 23 0 24 0;
#X restore 165 88 pd LINK - - - - - - - - - - - - -;
#X obj 616 476 clockfix;
#X obj 616 536 outlet midiclk;
#X obj 165 536 outlet linkclk;
#X text 225 14 This metronome outputs 360 ticks per beat numbered 0-359.
;
#X text 295 471 the clockfix object ensures there are always 360 ticks
numbered 0-359., f 40;
#X connect 1 0 2 0;
#X connect 2 0 15 0;
#X connect 3 0 5 0;
#X connect 5 0 6 0;
#X connect 5 1 13 0;
#X connect 5 2 14 0;
#X connect 5 3 12 0;
#X connect 6 0 8 0;
#X connect 7 0 6 1;
#X connect 8 0 9 0;
#X connect 8 1 7 0;
#X connect 9 0 10 0;
#X connect 10 0 11 0;
#X connect 11 0 17 0;
#X connect 15 0 19 0;
#X connect 16 0 1 0;
#X connect 16 1 0 0;
#X connect 17 0 18 0;
#X restore 78 36 pd metronome;
#X obj 210 97 r midiNoteIn;
#X obj 210 119 unpack 0 0;
#X obj 210 144 stripnote;
#X obj 210 172 bng 15 250 50 0 empty empty empty 17 7 0 10 -262144
-1 -1;
#X msg 93 311 sendtyped /trig i 1;
#X obj 338 108 r trigSource;
#X floatatom 339 155 5 0 0 0 - - -;
#X text 245 27 trigger sources are: 1 = Audio 2 = Link 1/4 3 = Link
1/8 4 = Midi clk 1/4 5 = Midi clk 1/8 6 = Midi notes;
#X obj 46 142 sel 0 180;
#X obj 133 143 sel 0 180;
#X obj 133 171 bng 15 250 50 0 empty empty empty 17 7 0 10 -262144
-1 -1;
#X obj 164 169 bng 15 250 50 0 empty empty empty 17 7 0 10 -262144
-1 -1;
#X obj 44 172 bng 15 250 50 0 empty empty empty 17 7 0 10 -262144 -1
-1;
#X obj 75 170 bng 15 250 50 0 empty empty empty 17 7 0 10 -262144 -1
-1;
#X msg 210 206 6;
#X msg 43 210 2;
#X msg 85 207 3;
#X msg 136 208 4;
#X msg 170 207 5;
#X obj 93 256 sel 0;
#X obj 338 190 t f f;
#X obj 374 216 sel 1;
#X msg 376 257 1;
#X obj 375 305 s audioTrigEnable;
#X obj 419 240 bang;
#X msg 421 270 0;
#X obj 93 345 s oscOut;
#X obj 49 90 spigot;
#X obj 95 62 r link-session-present;
#X connect 0 0 28 0;
#X connect 0 1 10 0;
#X connect 1 0 2 0;
#X connect 2 0 3 0;
#X connect 2 1 3 1;
#X connect 3 0 4 0;
#X connect 4 0 15 0;
#X connect 5 0 27 0;
#X connect 6 0 7 0;
#X connect 7 0 21 0;
#X connect 9 0 13 0;
#X connect 9 1 14 0;
#X connect 10 0 11 0;
#X connect 10 1 12 0;
#X connect 11 0 18 0;
#X connect 11 0 19 0;
#X connect 12 0 19 0;
#X connect 13 0 16 0;
#X connect 13 0 17 0;
#X connect 14 0 17 0;
#X connect 15 0 20 0;
#X connect 16 0 20 0;
#X connect 17 0 20 0;
#X connect 18 0 20 0;
#X connect 19 0 20 0;
#X connect 20 0 5 0;
#X connect 21 0 20 1;
#X connect 21 1 22 0;
#X connect 22 0 23 0;
#X connect 22 1 25 0;
#X connect 23 0 24 0;
#X connect 25 0 26 0;
#X connect 26 0 24 0;
#X connect 28 0 9 0;
#X connect 29 0 28 1;
#X restore 715 173 pd metro-and-trig;
#X text 1000 19 shift params;
#X obj 865 380 i;
#X msg 865 410 sendtyped /atrigen i \$1;
#X obj 865 338 r audioTrigEnable;
#X text 637 275 there isn't a mechanism for this patch to know when
the video engine is ready to receive params \, so we just send them
every second...;
#X obj 108 491 s oscConnected;
#X obj 42 229 spigot 0;
#X obj 79 198 r oscConnected;
#X obj 224 218 delay 100;
#X obj 224 240 s ping;
#X obj 575 285 r ping;
#X obj 375 145 delay 200;
#X obj 175 279 spigot;
#X obj 135 437 == 0;
#X obj 20 324 print;
#X connect 0 0 42 0;
#X connect 0 0 50 0;
#X connect 1 0 2 0;
#X connect 1 0 51 0;
#X connect 2 0 0 0;
#X connect 3 0 43 0;
#X connect 4 0 2 0;
#X connect 5 0 45 0;
#X connect 5 0 49 0;
#X connect 6 0 31 0;
#X connect 7 0 8 0;
#X connect 8 0 9 0;
#X connect 12 0 11 0;
#X connect 13 0 12 0;
#X connect 18 0 19 0;
#X connect 19 0 20 0;
#X connect 20 0 21 0;
#X connect 21 0 22 0;
#X connect 23 0 28 0;
#X connect 24 0 25 0;
#X connect 27 0 22 0;
#X connect 28 0 27 0;
#X connect 30 0 29 0;
#X connect 31 0 5 0;
#X connect 31 1 13 0;
#X connect 31 2 48 0;
#X connect 31 3 33 0;
#X connect 35 0 34 0;
#X connect 38 0 39 0;
#X connect 39 0 22 0;
#X connect 40 0 38 0;
#X connect 43 0 1 0;
#X connect 44 0 43 1;
#X connect 45 0 46 0;
#X connect 47 0 19 0;
#X connect 47 0 28 0;
#X connect 47 0 38 0;
#X connect 48 0 26 0;
#X connect 49 0 4 0;
#X connect 50 0 49 1;
