#N canvas 842 185 450 427 12;
#X obj 101 114 t f f;
#X obj 100 149 i;
#X obj 147 139 i;
#X obj 107 32 inlet;
#X obj 96 368 outlet;
#X obj 107 78 expr 0.75 * $f1 + 0.25 * $f2;
#X obj 209 266 expr abs($f1 - $f2);
#X obj 161 232 i, f 4;
#X obj 100 189 t f f b f;
#X obj 95 325 spigot;
#X obj 211 306 > 2;
#X connect 0 0 1 0;
#X connect 0 1 2 0;
#X connect 1 0 8 0;
#X connect 2 0 5 1;
#X connect 3 0 5 0;
#X connect 5 0 0 0;
#X connect 6 0 10 0;
#X connect 7 0 6 0;
#X connect 8 0 9 0;
#X connect 8 1 7 1;
#X connect 8 2 7 0;
#X connect 8 3 6 1;
#X connect 9 0 4 0;
#X connect 10 0 9 1;
