#N canvas 0 28 1920 984 10;
#X obj 678 162 bng 33 250 50 0 empty empty empty 17 7 0 10 #00faff #000000 #000000;
#X obj 728 164 tgl 33 0 empty empty empty 17 7 0 10 #00faff #000000 #000000 0 1;
#X text 1472 726 args are (pin number \, mode (0=OUTPUT \, 1=INPUT) \, and default value, f 25;
#X obj 35 743 wiringPi_gpio 0 1 1;
#X obj 633 741 wiringPi_gpio 1 1 1;
#X obj 172 742 wiringPi_gpio 3 1 1;
#X obj 504 742 wiringPi_gpio 2 1 1;
#X obj 915 740 wiringPi_gpio 4 1 1;
#X obj 777 740 wiringPi_gpio 5 1 1;
#X obj 325 745 wiringPi_gpio 6 1 1;
#X obj 1048 739 wiringPi_gpio 7 1 1;
#X obj 1183 738 wiringPi_gpio 27 1 1;
#X obj 1324 739 wiringPi_gpio 26 1 1;
#N canvas 735 369 450 300 tastone 0;
#X obj 101 26 inlet;
#X obj 101 48 change -1;
#X obj 101 71 == 0;
#X obj 101 101 tgl 38 0 empty empty empty 0 -9 0 10 #faff00 #000000 #000000 0 1;
#X connect 0 0 1 0;
#X connect 1 0 2 0;
#X connect 2 0 3 0;
#X coords 0 -1 1 1 40 40 2 100 100;
#X restore 31 773 pd tastone;
#X text 27 813 Key 10: TRIGGER;
#N canvas 735 369 450 300 tastone 0;
#X obj 101 26 inlet;
#X obj 101 48 change -1;
#X obj 101 71 == 0;
#X obj 101 101 tgl 38 0 empty empty empty 0 -9 0 10 #faff00 #000000 #000000 0 1;
#X connect 0 0 1 0;
#X connect 1 0 2 0;
#X connect 2 0 3 0;
#X coords 0 -1 1 1 40 40 2 100 100;
#X restore 173 773 pd tastone;
#X text 169 813 KEY 9: screen grab;
#N canvas 735 369 450 300 tastone 0;
#X obj 101 26 inlet;
#X obj 101 48 change -1;
#X obj 101 71 == 0;
#X obj 101 101 tgl 38 0 empty empty empty 0 -9 0 10 #faff00 #000000 #000000 0 1;
#X connect 0 0 1 0;
#X connect 1 0 2 0;
#X connect 2 0 3 0;
#X coords 0 -1 1 1 40 40 2 100 100;
#X restore 324 776 pd tastone;
#X text 318 815 KEY 8: Save/delete scene;
#N canvas 735 369 450 300 tastone 0;
#X obj 101 26 inlet;
#X obj 101 48 change -1;
#X obj 101 71 == 0;
#X obj 101 101 tgl 38 0 empty empty empty 0 -9 0 10 #faff00 #000000 #000000 0 1;
#X connect 0 0 1 0;
#X connect 1 0 2 0;
#X connect 2 0 3 0;
#X coords 0 -1 1 1 40 40 2 100 100;
#X restore 502 776 pd tastone;
#X text 501 816 KEY 7: next scene;
#N canvas 735 369 450 300 tastone 0;
#X obj 101 26 inlet;
#X obj 101 48 change -1;
#X obj 101 71 == 0;
#X obj 101 101 tgl 38 0 empty empty empty 0 -9 0 10 #faff00 #000000 #000000 0 1;
#X connect 0 0 1 0;
#X connect 1 0 2 0;
#X connect 2 0 3 0;
#X coords 0 -1 1 1 40 40 2 100 100;
#X restore 631 775 pd tastone;
#X text 630 815 KEY 6: prev scene;
#N canvas 735 369 450 300 tastone 0;
#X obj 101 26 inlet;
#X obj 101 48 change -1;
#X obj 101 71 == 0;
#X obj 101 101 tgl 38 0 empty empty empty 0 -9 0 10 #faff00 #000000 #000000 0 1;
#X connect 0 0 1 0;
#X connect 1 0 2 0;
#X connect 2 0 3 0;
#X coords 0 -1 1 1 40 40 2 100 100;
#X restore 777 773 pd tastone;
#X text 775 815 KEY 5: next mode;
#N canvas 735 369 450 300 tastone 0;
#X obj 101 26 inlet;
#X obj 101 48 change -1;
#X obj 101 71 == 0;
#X obj 101 101 tgl 38 0 empty empty empty 0 -9 0 10 #faff00 #000000 #000000 0 1;
#X connect 0 0 1 0;
#X connect 1 0 2 0;
#X connect 2 0 3 0;
#X coords 0 -1 1 1 40 40 2 100 100;
#X restore 916 770 pd tastone;
#X text 916 814 KEY 4: prev mode;
#N canvas 735 369 450 300 tastone 0;
#X obj 101 26 inlet;
#X obj 101 48 change -1;
#X obj 101 71 == 0;
#X obj 101 101 tgl 38 0 empty empty empty 0 -9 0 10 #faff00 #000000 #000000 0 1;
#X connect 0 0 1 0;
#X connect 1 0 2 0;
#X connect 2 0 3 0;
#X coords 0 -1 1 1 40 40 2 100 100;
#X restore 1048 770 pd tastone;
#X text 1049 814 KEY 3: AUTO CLEAR;
#N canvas 735 369 450 300 tastone 0;
#X obj 101 26 inlet;
#X obj 101 48 change -1;
#X obj 101 71 == 0;
#X obj 101 101 tgl 38 0 empty empty empty 0 -9 0 10 #faff00 #000000 #000000 0 1;
#X connect 0 0 1 0;
#X connect 1 0 2 0;
#X connect 2 0 3 0;
#X coords 0 -1 1 1 40 40 2 100 100;
#X restore 1183 767 pd tastone;
#X text 1183 813 KEY 1: OSD;
#N canvas 735 369 450 300 tastone 0;
#X obj 101 26 inlet;
#X obj 101 48 change -1;
#X obj 101 71 == 0;
#X obj 101 101 tgl 38 0 empty empty empty 0 -9 0 10 #faff00 #000000 #000000 0 1;
#X connect 0 0 1 0;
#X connect 1 0 2 0;
#X connect 2 0 3 0;
#X coords 0 -1 1 1 40 40 2 100 100;
#X restore 1322 769 pd tastone;
#X text 1321 810 KEY 2: SHIFT;
#X obj 680 212 metro 100;
#X msg 1278 370 setup_wiringPi;
#X obj 1275 406 wiringPi_mcp3008 0 5;
#X obj 1275 434 unpack f f f f f;
#X obj 1279 338 loadbang;
#X obj 678 246 t b b b b b b b b b b b, f 29;
#N canvas 677 352 659 376 knobbone 0;
#X floatatom 103 105 5 0 0 0 - - - 16;
#X obj 102 53 smooth;
#X obj 102 76 change -1;
#X obj 103 139 vsl 35 128 0 1023 0 0 empty empty empty 0 -9 0 10 #faff00 #000000 #000000 0 1;
#X obj 102 24 inlet;
#X connect 0 0 3 0;
#X connect 1 0 2 0;
#X connect 2 0 0 0;
#X connect 4 0 1 0;
#X coords 0 -1 1 1 65 175 2 100 100;
#X restore 1276 476 pd knobbone;
#N canvas 677 352 659 376 knobbone 0;
#X floatatom 103 105 5 0 0 0 - - - 16;
#X obj 102 53 smooth;
#X obj 102 76 change -1;
#X obj 103 139 vsl 35 128 0 1023 0 0 empty empty empty 0 -9 0 10 #faff00 #000000 #000000 0 1;
#X obj 102 24 inlet;
#X connect 0 0 3 0;
#X connect 1 0 2 0;
#X connect 2 0 0 0;
#X connect 4 0 1 0;
#X coords 0 -1 1 1 65 175 2 100 100;
#X restore 1354 476 pd knobbone;
#N canvas 677 352 659 376 knobbone 0;
#X floatatom 103 105 5 0 0 0 - - - 16;
#X obj 102 53 smooth;
#X obj 102 76 change -1;
#X obj 103 139 vsl 35 128 0 1023 0 0 empty empty empty 0 -9 0 10 #faff00 #000000 #000000 0 1;
#X obj 102 24 inlet;
#X connect 0 0 3 0;
#X connect 1 0 2 0;
#X connect 2 0 0 0;
#X connect 4 0 1 0;
#X coords 0 -1 1 1 65 175 2 100 100;
#X restore 1428 475 pd knobbone;
#N canvas 677 352 659 376 knobbone 0;
#X floatatom 103 105 5 0 0 0 - - - 16;
#X obj 102 53 smooth;
#X obj 102 76 change -1;
#X obj 103 139 vsl 35 128 0 1023 0 0 empty empty empty 0 -9 0 10 #faff00 #000000 #000000 0 1;
#X obj 102 24 inlet;
#X connect 0 0 3 0;
#X connect 1 0 2 0;
#X connect 2 0 0 0;
#X connect 4 0 1 0;
#X coords 0 -1 1 1 65 175 2 100 100;
#X restore 1506 475 pd knobbone;
#N canvas 677 352 659 376 knobbone 0;
#X floatatom 103 105 5 0 0 0 - - - 16;
#X obj 102 53 smooth;
#X obj 102 76 change -1;
#X obj 103 139 vsl 35 128 0 1023 0 0 empty empty empty 0 -9 0 10 #faff00 #000000 #000000 0 1;
#X obj 102 24 inlet;
#X connect 0 0 3 0;
#X connect 1 0 2 0;
#X connect 2 0 0 0;
#X connect 4 0 1 0;
#X coords 0 -1 1 1 65 175 2 100 100;
#X restore 1586 475 pd knobbone;
#X text 1290 658 Knob 1;
#X text 1592 655 Knob 5;
#X text 1517 657 Knob 4;
#X text 1435 659 Knob 3;
#X text 1366 659 Knob 2;
#X obj 206 227 rpi_gpio 22 0 1;
#X obj 104 224 rpi_gpio 23 0 1;
#X obj 323 229 rpi_gpio 24 0 1;
#X obj 102 133 hradio 30 1 0 4 empty empty OFF\ \ R\ \ \ G\ \ \ B 0 -9 0 14 #ff8300 #000000 #000000 0;
#X obj 324 203 == 3;
#X obj 204 198 == 2;
#X obj 105 192 == 1;
#X text 231 138 LED;
#X text 703 65 ARDUER CIECAPP;
#X connect 0 0 33 0;
#X connect 1 0 33 0;
#X connect 3 0 13 0;
#X connect 4 0 21 0;
#X connect 5 0 15 0;
#X connect 6 0 19 0;
#X connect 7 0 25 0;
#X connect 8 0 23 0;
#X connect 9 0 17 0;
#X connect 10 0 27 0;
#X connect 11 0 29 0;
#X connect 12 0 31 0;
#X connect 33 0 38 0;
#X connect 34 0 35 0;
#X connect 35 0 36 0;
#X connect 36 0 39 0;
#X connect 36 1 40 0;
#X connect 36 2 41 0;
#X connect 36 3 42 0;
#X connect 36 4 43 0;
#X connect 37 0 34 0;
#X connect 38 0 3 0;
#X connect 38 1 5 0;
#X connect 38 2 9 0;
#X connect 38 3 6 0;
#X connect 38 4 4 0;
#X connect 38 5 8 0;
#X connect 38 6 7 0;
#X connect 38 7 10 0;
#X connect 38 8 11 0;
#X connect 38 9 12 0;
#X connect 38 10 35 0;
#X connect 52 0 55 0;
#X connect 52 0 54 0;
#X connect 52 0 53 0;
#X connect 53 0 51 0;
#X connect 54 0 49 0;
#X connect 55 0 50 0;
