#N canvas 16 427 1366 674 10;
#X obj 535 53 bng 33 250 50 0 empty empty empty 17 7 0 10 -4032 -1
-1;
#X obj 585 55 tgl 33 0 empty empty empty 17 7 0 10 -4032 -1 -1 1 1
;
#X text 1472 726 args are (pin number \, mode (0=OUTPUT \, 1=INPUT)
\, and default value, f 25;
#X text 698 607 KEY 9: screen grab;
#X text 544 611 KEY 8: Save/delete scene;
#X text 429 606 KEY 7: next scene;
#X text 313 599 KEY 6: prev scene;
#X text 188 595 KEY 5: next mode;
#X text 69 599 KEY 4: prev mode;
#X text 679 483 KEY 3: AUTO CLEAR;
#N canvas 735 369 450 300 tastone 0;
#X obj 101 26 inlet;
#X obj 101 48 change -1;
#X obj 101 101 tgl 38 0 empty empty empty 0 -9 0 10 -257985 -1 -1 0
1;
#X connect 0 0 1 0;
#X connect 1 0 2 0;
#X coords 0 -1 1 1 40 40 2 100 100;
#X restore 104 440 pd tastone;
#X text 87 487 KEY 1: OSD;
#X text 529 479 KEY 2: SHIFT;
#X obj 537 103 metro 100;
#X msg 919 168 setup_wiringPi;
#X obj 916 204 wiringPi_mcp3008 0 5;
#X obj 916 232 unpack f f f f f;
#X obj 920 136 loadbang;
#N canvas 677 352 659 376 knobbone 0;
#X floatatom 103 105 5 0 0 0 - - -;
#X obj 102 76 change -1;
#X obj 103 139 vsl 35 128 0 1023 0 0 empty empty empty 0 -9 0 10 -257985
-1 -1 0 1;
#X obj 102 24 inlet;
#X connect 0 0 2 0;
#X connect 1 0 0 0;
#X connect 3 0 1 0;
#X coords 0 -1 1 1 65 175 2 100 100;
#X restore 917 274 pd knobbone;
#N canvas 677 352 659 376 knobbone 0;
#X floatatom 103 105 5 0 0 0 - - -;
#X obj 102 76 change -1;
#X obj 103 139 vsl 35 128 0 1023 0 0 empty empty empty 0 -9 0 10 -257985
-1 -1 0 1;
#X obj 102 24 inlet;
#X connect 0 0 2 0;
#X connect 1 0 0 0;
#X connect 3 0 1 0;
#X coords 0 -1 1 1 65 175 2 100 100;
#X restore 995 274 pd knobbone;
#N canvas 677 352 659 376 knobbone 0;
#X floatatom 103 105 5 0 0 0 - - -;
#X obj 102 76 change -1;
#X obj 103 139 vsl 35 128 0 1023 0 0 empty empty empty 0 -9 0 10 -257985
-1 -1 0 1;
#X obj 102 24 inlet;
#X connect 0 0 2 0;
#X connect 1 0 0 0;
#X connect 3 0 1 0;
#X coords 0 -1 1 1 65 175 2 100 100;
#X restore 1069 273 pd knobbone;
#N canvas 677 352 659 376 knobbone 0;
#X floatatom 103 105 5 0 0 0 - - -;
#X obj 102 76 change -1;
#X obj 103 139 vsl 35 128 0 1023 0 0 empty empty empty 0 -9 0 10 -257985
-1 -1 0 1;
#X obj 102 24 inlet;
#X connect 0 0 2 0;
#X connect 1 0 0 0;
#X connect 3 0 1 0;
#X coords 0 -1 1 1 65 175 2 100 100;
#X restore 1147 273 pd knobbone;
#N canvas 677 352 659 376 knobbone 0;
#X floatatom 103 105 5 0 0 0 - - -;
#X obj 102 76 change -1;
#X obj 103 139 vsl 35 128 0 1023 0 0 empty empty empty 0 -9 0 10 -257985
-1 -1 0 1;
#X obj 102 24 inlet;
#X connect 0 0 2 0;
#X connect 1 0 0 0;
#X connect 3 0 1 0;
#X coords 0 -1 1 1 65 175 2 100 100;
#X restore 1227 273 pd knobbone;
#X text 931 456 Knob 1;
#X text 1233 453 Knob 5;
#X text 1158 455 Knob 4;
#X text 1076 457 Knob 3;
#X text 1007 457 Knob 2;
#X obj 67 106 hradio 33 1 0 4 empty empty OFF__R___G___B 0 -8 0 15
-260097 -1 -1 3;
#X obj 273 163 == 3;
#X obj 145 164 == 2;
#X obj 18 164 == 1;
#X text 212 111 LED;
#X text 555 7 ARDUER CIECAPP;
#X obj 80 4 loadbang;
#X msg 79 29 0;
#X obj 535 137 t b b, f 29;
#X floatatom 533 236 5 0 0 0 - - -;
#N canvas 735 369 450 300 tastone 0;
#X obj 101 26 inlet;
#X obj 101 48 change -1;
#X obj 101 101 tgl 38 0 empty empty empty 0 -9 0 10 -257985 -1 -1 0
1;
#X connect 0 0 1 0;
#X connect 1 0 2 0;
#X coords 0 -1 1 1 40 40 2 100 100;
#X restore 531 433 pd tastone;
#N canvas 735 369 450 300 tastone 0;
#X obj 101 26 inlet;
#X obj 101 48 change -1;
#X obj 101 101 tgl 38 0 empty empty empty 0 -9 0 10 -257985 -1 -1 0
1;
#X connect 0 0 1 0;
#X connect 1 0 2 0;
#X coords 0 -1 1 1 40 40 2 100 100;
#X restore 670 436 pd tastone;
#X obj 109 407 & 512;
#X obj 532 397 & 256;
#X obj 661 390 & 4096;
#N canvas 735 369 450 300 tastone 0;
#X obj 101 26 inlet;
#X obj 101 48 change -1;
#X obj 101 101 tgl 38 0 empty empty empty 0 -9 0 10 -257985 -1 -1 0
1;
#X connect 0 0 1 0;
#X connect 1 0 2 0;
#X coords 0 -1 1 1 40 40 2 100 100;
#X restore 102 551 pd tastone;
#X obj 107 523 & 2048;
#N canvas 735 369 450 300 tastone 0;
#X obj 101 26 inlet;
#X obj 101 48 change -1;
#X obj 101 101 tgl 38 0 empty empty empty 0 -9 0 10 -257985 -1 -1 0
1;
#X connect 0 0 1 0;
#X connect 1 0 2 0;
#X coords 0 -1 1 1 40 40 2 100 100;
#X restore 216 551 pd tastone;
#X obj 221 523 & 64;
#N canvas 735 369 450 300 tastone 0;
#X obj 101 26 inlet;
#X obj 101 48 change -1;
#X obj 101 101 tgl 38 0 empty empty empty 0 -9 0 10 -257985 -1 -1 0
1;
#X connect 0 0 1 0;
#X connect 1 0 2 0;
#X coords 0 -1 1 1 40 40 2 100 100;
#X restore 341 546 pd tastone;
#X obj 346 518 & 16384;
#N canvas 735 369 450 300 tastone 0;
#X obj 101 26 inlet;
#X obj 101 48 change -1;
#X obj 101 101 tgl 38 0 empty empty empty 0 -9 0 10 -257985 -1 -1 0
1;
#X connect 0 0 1 0;
#X connect 1 0 2 0;
#X coords 0 -1 1 1 40 40 2 100 100;
#X restore 449 547 pd tastone;
#X obj 454 519 & 1024;
#N canvas 735 369 450 300 tastone 0;
#X obj 101 26 inlet;
#X obj 101 48 change -1;
#X obj 101 101 tgl 38 0 empty empty empty 0 -9 0 10 -257985 -1 -1 0
1;
#X connect 0 0 1 0;
#X connect 1 0 2 0;
#X coords 0 -1 1 1 40 40 2 100 100;
#X restore 555 551 pd tastone;
#X obj 560 523 & 1;
#N canvas 735 369 450 300 tastone 0;
#X obj 101 26 inlet;
#X obj 101 48 change -1;
#X obj 101 101 tgl 38 0 empty empty empty 0 -9 0 10 -257985 -1 -1 0
1;
#X connect 0 0 1 0;
#X connect 1 0 2 0;
#X coords 0 -1 1 1 40 40 2 100 100;
#X restore 696 561 pd tastone;
#X text 841 604 Key 10: TRIGGER;
#X obj 701 533 & 32768;
#N canvas 735 369 450 300 tastone 0;
#X obj 101 26 inlet;
#X obj 101 48 change -1;
#X obj 101 101 tgl 38 0 empty empty empty 0 -9 0 10 -257985 -1 -1 0
1;
#X connect 0 0 1 0;
#X connect 1 0 2 0;
#X coords 0 -1 1 1 40 40 2 100 100;
#X restore 828 566 pd tastone;
#X obj 833 538 & 8192;
#X obj 668 24 loadbang;
#X obj 533 213 wiringPi_74165 2 9 22;
#X obj 145 185 wiringPi_gpio 3 0 0;
#X obj 275 191 wiringPi_gpio 5 0 0;
#X obj 18 188 wiringPi_gpio 4 0 0;
#X connect 0 0 13 0;
#X connect 1 0 13 0;
#X connect 13 0 36 0;
#X connect 14 0 15 0;
#X connect 15 0 16 0;
#X connect 16 0 18 0;
#X connect 16 1 19 0;
#X connect 16 2 20 0;
#X connect 16 3 21 0;
#X connect 16 4 22 0;
#X connect 17 0 14 0;
#X connect 28 0 31 0;
#X connect 28 0 30 0;
#X connect 28 0 29 0;
#X connect 29 0 61 0;
#X connect 30 0 60 0;
#X connect 31 0 62 0;
#X connect 34 0 35 0;
#X connect 35 0 28 0;
#X connect 36 0 59 0;
#X connect 36 1 15 0;
#X connect 37 0 40 0;
#X connect 37 0 41 0;
#X connect 37 0 42 0;
#X connect 37 0 44 0;
#X connect 37 0 46 0;
#X connect 37 0 48 0;
#X connect 37 0 50 0;
#X connect 37 0 52 0;
#X connect 37 0 55 0;
#X connect 37 0 57 0;
#X connect 40 0 10 0;
#X connect 41 0 38 0;
#X connect 42 0 39 0;
#X connect 44 0 43 0;
#X connect 46 0 45 0;
#X connect 48 0 47 0;
#X connect 50 0 49 0;
#X connect 52 0 51 0;
#X connect 55 0 53 0;
#X connect 57 0 56 0;
#X connect 58 0 1 0;
#X connect 59 0 37 0;
